<svg width="177" height="160" viewBox="0 0 177 160" fill="none" xmlns="http://www.w3.org/2000/svg">
<path d="M144.441 59.0884C144.441 57.0979 146.061 55.4844 148.059 55.4844H155.294C157.292 55.4844 158.912 57.0979 158.912 59.0884V66.2963C158.912 68.2868 157.292 69.9003 155.294 69.9003H148.059C146.061 69.9003 144.441 68.2868 144.441 66.2963V59.0884Z" fill="#D7F9FF"/>
<path d="M162.529 59.0884C162.529 57.0979 164.149 55.4844 166.147 55.4844H173.382C175.38 55.4844 177 57.0979 177 59.0884V66.2963C177 68.2868 175.38 69.9003 173.382 69.9003H166.147C164.149 69.9003 162.529 68.2868 162.529 66.2963V59.0884Z" fill="#D7F9FF"/>
<path d="M126.353 77.1083C126.353 75.1179 127.973 73.5043 129.971 73.5043H137.206C139.204 73.5043 140.824 75.1179 140.824 77.1083V84.3163C140.824 86.3067 139.204 87.9203 137.206 87.9203H129.971C127.973 87.9203 126.353 86.3067 126.353 84.3163V77.1083Z" fill="#D7F9FF"/>
<path d="M144.441 77.1083C144.441 75.1179 146.061 73.5043 148.059 73.5043H155.294C157.292 73.5043 158.912 75.1179 158.912 77.1083V84.3163C158.912 86.3067 157.292 87.9203 155.294 87.9203H148.059C146.061 87.9203 144.441 86.3067 144.441 84.3163V77.1083Z" fill="#D7F9FF"/>
<path d="M162.529 77.1083C162.529 75.1179 164.149 73.5043 166.147 73.5043H173.382C175.38 73.5043 177 75.1179 177 77.1083V84.3163C177 86.3067 175.38 87.9203 173.382 87.9203H166.147C164.149 87.9203 162.529 86.3067 162.529 84.3163V77.1083Z" fill="#D7F9FF"/>
<path d="M108.265 95.1282C108.265 93.1378 109.884 91.5242 111.882 91.5242H119.118C121.116 91.5242 122.735 93.1378 122.735 95.1282V102.336C122.735 104.327 121.116 105.94 119.118 105.94H111.882C109.884 105.94 108.265 104.327 108.265 102.336V95.1282Z" fill="#D7F9FF"/>
<path d="M126.353 95.1282C126.353 93.1378 127.973 91.5242 129.971 91.5242H137.206C139.204 91.5242 140.824 93.1378 140.824 95.1282V102.336C140.824 104.327 139.204 105.94 137.206 105.94H129.971C127.973 105.94 126.353 104.327 126.353 102.336V95.1282Z" fill="#D7F9FF"/>
<path d="M144.441 95.1282C144.441 93.1378 146.061 91.5242 148.059 91.5242H155.294C157.292 91.5242 158.912 93.1378 158.912 95.1282V102.336C158.912 104.327 157.292 105.94 155.294 105.94H148.059C146.061 105.94 144.441 104.327 144.441 102.336V95.1282Z" fill="#D7F9FF"/>
<path d="M162.529 95.1282C162.529 93.1378 164.149 91.5242 166.147 91.5242H173.382C175.38 91.5242 177 93.1378 177 95.1282V102.336C177 104.327 175.38 105.94 173.382 105.94H166.147C164.149 105.94 162.529 104.327 162.529 102.336V95.1282Z" fill="#D7F9FF"/>
<path d="M90.1765 113.148C90.1765 111.158 91.7962 109.544 93.7941 109.544H101.029C103.027 109.544 104.647 111.158 104.647 113.148V120.356C104.647 122.347 103.027 123.96 101.029 123.96H93.7941C91.7962 123.96 90.1765 122.347 90.1765 120.356V113.148Z" fill="#D7F9FF"/>
<path d="M108.265 113.148C108.265 111.158 109.884 109.544 111.882 109.544H119.118C121.116 109.544 122.735 111.158 122.735 113.148V120.356C122.735 122.347 121.116 123.96 119.118 123.96H111.882C109.884 123.96 108.265 122.347 108.265 120.356V113.148Z" fill="#D7F9FF"/>
<path d="M126.353 113.148C126.353 111.158 127.973 109.544 129.971 109.544H137.206C139.204 109.544 140.824 111.158 140.824 113.148V120.356C140.824 122.347 139.204 123.96 137.206 123.96H129.971C127.973 123.96 126.353 122.347 126.353 120.356V113.148Z" fill="#D7F9FF"/>
<path d="M144.441 113.148C144.441 111.158 146.061 109.544 148.059 109.544H155.294C157.292 109.544 158.912 111.158 158.912 113.148V120.356C158.912 122.347 157.292 123.96 155.294 123.96H148.059C146.061 123.96 144.441 122.347 144.441 120.356V113.148Z" fill="#D7F9FF"/>
<path d="M162.529 113.148C162.529 111.158 164.149 109.544 166.147 109.544H173.382C175.38 109.544 177 111.158 177 113.148V120.356C177 122.347 175.38 123.96 173.382 123.96H166.147C164.149 123.96 162.529 122.347 162.529 120.356V113.148Z" fill="#D7F9FF"/>
<path d="M72.0882 131.168C72.0882 129.178 73.7079 127.564 75.7059 127.564H82.9412C84.9392 127.564 86.5588 129.178 86.5588 131.168V138.376C86.5588 140.367 84.9392 141.98 82.9412 141.98H75.7059C73.7079 141.98 72.0882 140.367 72.0882 138.376V131.168Z" fill="#D7F9FF"/>
<path d="M90.1765 131.168C90.1765 129.178 91.7962 127.564 93.7941 127.564H101.029C103.027 127.564 104.647 129.178 104.647 131.168V138.376C104.647 140.367 103.027 141.98 101.029 141.98H93.7941C91.7962 141.98 90.1765 140.367 90.1765 138.376V131.168Z" fill="#D7F9FF"/>
<path d="M108.265 131.168C108.265 129.178 109.884 127.564 111.882 127.564H119.118C121.116 127.564 122.735 129.178 122.735 131.168V138.376C122.735 140.367 121.116 141.98 119.118 141.98H111.882C109.884 141.98 108.265 140.367 108.265 138.376V131.168Z" fill="#D7F9FF"/>
<path d="M126.353 131.168C126.353 129.178 127.973 127.564 129.971 127.564H137.206C139.204 127.564 140.824 129.178 140.824 131.168V138.376C140.824 140.367 139.204 141.98 137.206 141.98H129.971C127.973 141.98 126.353 140.367 126.353 138.376V131.168Z" fill="#D7F9FF"/>
<path d="M144.441 131.168C144.441 129.178 146.061 127.564 148.059 127.564H155.294C157.292 127.564 158.912 129.178 158.912 131.168V138.376C158.912 140.367 157.292 141.98 155.294 141.98H148.059C146.061 141.98 144.441 140.367 144.441 138.376V131.168Z" fill="#D7F9FF"/>
<path d="M162.529 131.168C162.529 129.178 164.149 127.564 166.147 127.564H173.382C175.38 127.564 177 129.178 177 131.168V138.376C177 140.367 175.38 141.98 173.382 141.98H166.147C164.149 141.98 162.529 140.367 162.529 138.376V131.168Z" fill="#D7F9FF"/>
<path d="M54 149.188C54 147.198 55.6197 145.584 57.6177 145.584H64.853C66.8509 145.584 68.4706 147.198 68.4706 149.188V156.396C68.4706 158.386 66.8509 160 64.853 160H57.6177C55.6197 160 54 158.386 54 156.396V149.188Z" fill="#D7F9FF"/>
<path d="M72.0882 149.188C72.0882 147.198 73.7079 145.584 75.7059 145.584H82.9412C84.9392 145.584 86.5588 147.198 86.5588 149.188V156.396C86.5588 158.386 84.9392 160 82.9412 160H75.7059C73.7079 160 72.0882 158.386 72.0882 156.396V149.188Z" fill="#D7F9FF"/>
<path d="M90.1765 149.188C90.1765 147.198 91.7962 145.584 93.7941 145.584H101.029C103.027 145.584 104.647 147.198 104.647 149.188V156.396C104.647 158.386 103.027 160 101.029 160H93.7941C91.7962 160 90.1765 158.386 90.1765 156.396V149.188Z" fill="#D7F9FF"/>
<path d="M108.265 149.188C108.265 147.198 109.884 145.584 111.882 145.584H119.118C121.116 145.584 122.735 147.198 122.735 149.188V156.396C122.735 158.386 121.116 160 119.118 160H111.882C109.884 160 108.265 158.386 108.265 156.396V149.188Z" fill="#D7F9FF"/>
<path d="M126.353 149.188C126.353 147.198 127.973 145.584 129.971 145.584H137.206C139.204 145.584 140.824 147.198 140.824 149.188V156.396C140.824 158.386 139.204 160 137.206 160H129.971C127.973 160 126.353 158.386 126.353 156.396V149.188Z" fill="#D7F9FF"/>
<path d="M144.441 149.188C144.441 147.198 146.061 145.584 148.059 145.584H155.294C157.292 145.584 158.912 147.198 158.912 149.188V156.396C158.912 158.386 157.292 160 155.294 160H148.059C146.061 160 144.441 158.386 144.441 156.396V149.188Z" fill="#D7F9FF"/>
<path d="M162.529 149.188C162.529 147.198 164.149 145.584 166.147 145.584H173.382C175.38 145.584 177 147.198 177 149.188V156.396C177 158.386 175.38 160 173.382 160H166.147C164.149 160 162.529 158.386 162.529 156.396V149.188Z" fill="#D7F9FF"/>
<path d="M108.265 59.0885C108.265 57.098 109.884 55.4845 111.882 55.4845H119.118C121.116 55.4845 122.735 57.098 122.735 59.0885V66.2964C122.735 68.2869 121.116 69.9004 119.118 69.9004H111.882C109.884 69.9004 108.265 68.2869 108.265 66.2964V59.0885Z" fill="#D7F9FF"/>
<path d="M126.353 59.0885C126.353 57.098 127.973 55.4845 129.971 55.4845H137.206C139.204 55.4845 140.824 57.098 140.824 59.0885V66.2964C140.824 68.2869 139.204 69.9004 137.206 69.9004H129.971C127.973 69.9004 126.353 68.2869 126.353 66.2964V59.0885Z" fill="#D7F9FF"/>
<path d="M90.1765 77.1084C90.1765 75.118 91.7962 73.5044 93.7941 73.5044H101.029C103.027 73.5044 104.647 75.118 104.647 77.1084V84.3164C104.647 86.3068 103.027 87.9204 101.029 87.9204H93.7941C91.7962 87.9204 90.1765 86.3068 90.1765 84.3164V77.1084Z" fill="#D7F9FF"/>
<path d="M108.265 77.1084C108.265 75.118 109.884 73.5044 111.882 73.5044H119.118C121.116 73.5044 122.735 75.118 122.735 77.1084V84.3164C122.735 86.3068 121.116 87.9204 119.118 87.9204H111.882C109.884 87.9204 108.265 86.3068 108.265 84.3164V77.1084Z" fill="#D7F9FF"/>
<path d="M54 131.134C54 129.143 55.6197 127.53 57.6177 127.53H64.853C66.8509 127.53 68.4706 129.143 68.4706 131.134V138.342C68.4706 140.332 66.8509 141.946 64.853 141.946H57.6177C55.6197 141.946 54 140.332 54 138.342V131.134Z" fill="#D7F9FF"/>
<path d="M72.0882 95.1283C72.0882 93.1379 73.7079 91.5243 75.7059 91.5243H82.9412C84.9392 91.5243 86.5588 93.1379 86.5588 95.1283V102.336C86.5588 104.327 84.9392 105.94 82.9412 105.94H75.7059C73.7079 105.94 72.0882 104.327 72.0882 102.336V95.1283Z" fill="#D7F9FF"/>
<path d="M90.1765 95.1283C90.1765 93.1379 91.7962 91.5243 93.7941 91.5243H101.029C103.027 91.5243 104.647 93.1379 104.647 95.1283V102.336C104.647 104.327 103.027 105.94 101.029 105.94H93.7941C91.7962 105.94 90.1765 104.327 90.1765 102.336V95.1283Z" fill="#D7F9FF"/>
<path d="M126.353 41.3086C126.353 39.3182 127.973 37.7046 129.971 37.7046H137.206C139.204 37.7046 140.824 39.3182 140.824 41.3086V48.5166C140.824 50.507 139.204 52.1206 137.206 52.1206H129.971C127.973 52.1206 126.353 50.507 126.353 48.5166V41.3086Z" fill="#D7F9FF"/>
<path d="M144 41.3086C144 39.3182 145.62 37.7046 147.618 37.7046H154.853C156.851 37.7046 158.471 39.3182 158.471 41.3086V48.5166C158.471 50.507 156.851 52.1206 154.853 52.1206H147.618C145.62 52.1206 144 50.507 144 48.5166V41.3086Z" fill="#D7F9FF"/>
<path d="M54 113.148C54 111.158 55.6197 109.544 57.6177 109.544H64.853C66.8509 109.544 68.4706 111.158 68.4706 113.148V120.356C68.4706 122.347 66.8509 123.96 64.853 123.96H57.6177C55.6197 123.96 54 122.347 54 120.356V113.148Z" fill="#D7F9FF"/>
<path d="M72.0882 113.148C72.0882 111.158 73.7079 109.544 75.7059 109.544H82.9412C84.9392 109.544 86.5588 111.158 86.5588 113.148V120.356C86.5588 122.347 84.9392 123.96 82.9412 123.96H75.7059C73.7079 123.96 72.0882 122.347 72.0882 120.356V113.148Z" fill="#D7F9FF"/>
<path d="M144 23.1343C144 21.1438 145.62 19.5303 147.618 19.5303H154.853C156.851 19.5303 158.471 21.1438 158.471 23.1343V30.3422C158.471 32.3327 156.851 33.9462 154.853 33.9462H147.618C145.62 33.9462 144 32.3327 144 30.3422V23.1343Z" fill="#D7F9FF"/>
<path d="M162.5 23.1343C162.5 21.1438 164.12 19.5303 166.118 19.5303H173.353C175.351 19.5303 176.971 21.1438 176.971 23.1343V30.3422C176.971 32.3327 175.351 33.9462 173.353 33.9462H166.118C164.12 33.9462 162.5 32.3327 162.5 30.3422V23.1343Z" fill="#D7F9FF"/>
<path d="M162.5 41.3086C162.5 39.3182 164.12 37.7046 166.118 37.7046H173.353C175.351 37.7046 176.971 39.3182 176.971 41.3086V48.5166C176.971 50.507 175.351 52.1206 173.353 52.1206H166.118C164.12 52.1206 162.5 50.507 162.5 48.5166V41.3086Z" fill="#D7F9FF"/>
<path d="M35.3823 131.134C35.3823 129.143 37.002 127.53 39 127.53H46.2353C48.2332 127.53 49.8529 129.143 49.8529 131.134V138.342C49.8529 140.332 48.2332 141.946 46.2353 141.946H39C37.002 141.946 35.3823 140.332 35.3823 138.342V131.134Z" fill="#D7F9FF"/>
<path d="M35.3823 149.188C35.3823 147.197 37.002 145.584 39 145.584H46.2353C48.2332 145.584 49.8529 147.197 49.8529 149.188V156.396C49.8529 158.386 48.2332 160 46.2353 160H39C37.002 160 35.3823 158.386 35.3823 156.396V149.188Z" fill="#D7F9FF"/>
<path d="M32.5588 59.0884C32.5588 57.0979 30.9391 55.4844 28.9412 55.4844H21.7059C19.7079 55.4844 18.0882 57.0979 18.0882 59.0884V66.2963C18.0882 68.2868 19.7079 69.9003 21.7059 69.9003H28.9412C30.9391 69.9003 32.5588 68.2868 32.5588 66.2963V59.0884Z" fill="#D7F9FF"/>
<path d="M14.4706 59.0884C14.4706 57.0979 12.8509 55.4844 10.8529 55.4844H3.61765C1.61967 55.4844 0 57.0979 0 59.0884V66.2963C0 68.2868 1.61967 69.9003 3.61765 69.9003H10.8529C12.8509 69.9003 14.4706 68.2868 14.4706 66.2963V59.0884Z" fill="#D7F9FF"/>
<path d="M50.647 77.1083C50.647 75.1179 49.0274 73.5043 47.0294 73.5043H39.7941C37.7961 73.5043 36.1765 75.1179 36.1765 77.1083V84.3163C36.1765 86.3067 37.7961 87.9203 39.7941 87.9203H47.0294C49.0274 87.9203 50.647 86.3067 50.647 84.3163V77.1083Z" fill="#D7F9FF"/>
<path d="M32.5588 77.1083C32.5588 75.1179 30.9391 73.5043 28.9412 73.5043H21.7059C19.7079 73.5043 18.0882 75.1179 18.0882 77.1083V84.3163C18.0882 86.3067 19.7079 87.9203 21.7059 87.9203H28.9412C30.9391 87.9203 32.5588 86.3067 32.5588 84.3163V77.1083Z" fill="#D7F9FF"/>
<path d="M14.4706 77.1083C14.4706 75.1179 12.8509 73.5043 10.8529 73.5043H3.61765C1.61967 73.5043 0 75.1179 0 77.1083V84.3163C0 86.3067 1.61967 87.9203 3.61765 87.9203H10.8529C12.8509 87.9203 14.4706 86.3067 14.4706 84.3163V77.1083Z" fill="#D7F9FF"/>
<path d="M68.7353 95.1282C68.7353 93.1378 67.1156 91.5242 65.1176 91.5242H57.8823C55.8844 91.5242 54.2647 93.1378 54.2647 95.1282V102.336C54.2647 104.327 55.8844 105.94 57.8823 105.94H65.1176C67.1156 105.94 68.7353 104.327 68.7353 102.336V95.1282Z" fill="#D7F9FF"/>
<path d="M50.647 95.1282C50.647 93.1378 49.0274 91.5242 47.0294 91.5242H39.7941C37.7961 91.5242 36.1765 93.1378 36.1765 95.1282V102.336C36.1765 104.327 37.7961 105.94 39.7941 105.94H47.0294C49.0274 105.94 50.647 104.327 50.647 102.336V95.1282Z" fill="#D7F9FF"/>
<path d="M32.5588 95.1282C32.5588 93.1378 30.9391 91.5242 28.9412 91.5242H21.7059C19.7079 91.5242 18.0882 93.1378 18.0882 95.1282V102.336C18.0882 104.327 19.7079 105.94 21.7059 105.94H28.9412C30.9391 105.94 32.5588 104.327 32.5588 102.336V95.1282Z" fill="#D7F9FF"/>
<path d="M14.4706 95.1282C14.4706 93.1378 12.8509 91.5242 10.8529 91.5242H3.61765C1.61967 91.5242 0 93.1378 0 95.1282V102.336C0 104.327 1.61967 105.94 3.61765 105.94H10.8529C12.8509 105.94 14.4706 104.327 14.4706 102.336V95.1282Z" fill="#D7F9FF"/>
<path d="M68.7353 113.148C68.7353 111.158 67.1156 109.544 65.1176 109.544H57.8823C55.8844 109.544 54.2647 111.158 54.2647 113.148V120.356C54.2647 122.347 55.8844 123.96 57.8823 123.96H65.1176C67.1156 123.96 68.7353 122.347 68.7353 120.356V113.148Z" fill="#D7F9FF"/>
<path d="M50.647 113.148C50.647 111.158 49.0274 109.544 47.0294 109.544H39.7941C37.7961 109.544 36.1765 111.158 36.1765 113.148V120.356C36.1765 122.347 37.7961 123.96 39.7941 123.96H47.0294C49.0274 123.96 50.647 122.347 50.647 120.356V113.148Z" fill="#D7F9FF"/>
<path d="M32.5588 113.148C32.5588 111.158 30.9391 109.544 28.9412 109.544H21.7059C19.7079 109.544 18.0882 111.158 18.0882 113.148V120.356C18.0882 122.347 19.7079 123.96 21.7059 123.96H28.9412C30.9391 123.96 32.5588 122.347 32.5588 120.356V113.148Z" fill="#D7F9FF"/>
<path d="M14.4706 113.148C14.4706 111.158 12.8509 109.544 10.8529 109.544H3.61765C1.61967 109.544 0 111.158 0 113.148V120.356C0 122.347 1.61967 123.96 3.61765 123.96H10.8529C12.8509 123.96 14.4706 122.347 14.4706 120.356V113.148Z" fill="#D7F9FF"/>
<path d="M68.7353 131.168C68.7353 129.178 67.1156 127.564 65.1176 127.564H57.8823C55.8844 127.564 54.2647 129.178 54.2647 131.168V138.376C54.2647 140.367 55.8844 141.98 57.8823 141.98H65.1176C67.1156 141.98 68.7353 140.367 68.7353 138.376V131.168Z" fill="#D7F9FF"/>
<path d="M50.647 131.168C50.647 129.178 49.0274 127.564 47.0294 127.564H39.7941C37.7961 127.564 36.1765 129.178 36.1765 131.168V138.376C36.1765 140.367 37.7961 141.98 39.7941 141.98H47.0294C49.0274 141.98 50.647 140.367 50.647 138.376V131.168Z" fill="#D7F9FF"/>
<path d="M32.5588 131.168C32.5588 129.178 30.9391 127.564 28.9412 127.564H21.7059C19.7079 127.564 18.0882 129.178 18.0882 131.168V138.376C18.0882 140.367 19.7079 141.98 21.7059 141.98H28.9412C30.9391 141.98 32.5588 140.367 32.5588 138.376V131.168Z" fill="#D7F9FF"/>
<path d="M14.4706 131.168C14.4706 129.178 12.8509 127.564 10.8529 127.564H3.61765C1.61967 127.564 0 129.178 0 131.168V138.376C0 140.367 1.61967 141.98 3.61765 141.98H10.8529C12.8509 141.98 14.4706 140.367 14.4706 138.376V131.168Z" fill="#D7F9FF"/>
<path d="M68.7353 149.188C68.7353 147.198 67.1156 145.584 65.1176 145.584H57.8823C55.8844 145.584 54.2647 147.198 54.2647 149.188V156.396C54.2647 158.386 55.8844 160 57.8823 160H65.1176C67.1156 160 68.7353 158.386 68.7353 156.396V149.188Z" fill="#D7F9FF"/>
<path d="M50.647 149.188C50.647 147.198 49.0274 145.584 47.0294 145.584H39.7941C37.7961 145.584 36.1765 147.198 36.1765 149.188V156.396C36.1765 158.386 37.7961 160 39.7941 160H47.0294C49.0274 160 50.647 158.386 50.647 156.396V149.188Z" fill="#D7F9FF"/>
<path d="M32.5588 149.188C32.5588 147.198 30.9391 145.584 28.9412 145.584H21.7059C19.7079 145.584 18.0882 147.198 18.0882 149.188V156.396C18.0882 158.386 19.7079 160 21.7059 160H28.9412C30.9391 160 32.5588 158.386 32.5588 156.396V149.188Z" fill="#D7F9FF"/>
<path d="M14.4706 149.188C14.4706 147.198 12.8509 145.584 10.8529 145.584H3.61765C1.61967 145.584 0 147.198 0 149.188V156.396C0 158.386 1.61967 160 3.61765 160H10.8529C12.8509 160 14.4706 158.386 14.4706 156.396V149.188Z" fill="#D7F9FF"/>
<path d="M68.7353 59.0885C68.7353 57.098 67.1156 55.4845 65.1176 55.4845H57.8823C55.8844 55.4845 54.2647 57.098 54.2647 59.0885V66.2964C54.2647 68.2869 55.8844 69.9004 57.8823 69.9004H65.1176C67.1156 69.9004 68.7353 68.2869 68.7353 66.2964V59.0885Z" fill="#D7F9FF"/>
<path d="M50.647 59.0885C50.647 57.098 49.0274 55.4845 47.0294 55.4845H39.7941C37.7961 55.4845 36.1765 57.098 36.1765 59.0885V66.2964C36.1765 68.2869 37.7961 69.9004 39.7941 69.9004H47.0294C49.0274 69.9004 50.647 68.2869 50.647 66.2964V59.0885Z" fill="#D7F9FF"/>
<path d="M86.8235 77.1084C86.8235 75.118 85.2038 73.5044 83.2059 73.5044H75.9706C73.9726 73.5044 72.3529 75.118 72.3529 77.1084V84.3164C72.3529 86.3068 73.9726 87.9204 75.9706 87.9204H83.2059C85.2038 87.9204 86.8235 86.3068 86.8235 84.3164V77.1084Z" fill="#D7F9FF"/>
<path d="M68.7353 77.1084C68.7353 75.118 67.1156 73.5044 65.1176 73.5044H57.8823C55.8844 73.5044 54.2647 75.118 54.2647 77.1084V84.3164C54.2647 86.3068 55.8844 87.9204 57.8823 87.9204H65.1176C67.1156 87.9204 68.7353 86.3068 68.7353 84.3164V77.1084Z" fill="#D7F9FF"/>
<path d="M50.647 41.3086C50.647 39.3182 49.0274 37.7046 47.0294 37.7046H39.7941C37.7961 37.7046 36.1764 39.3182 36.1764 41.3086V48.5166C36.1764 50.507 37.7961 52.1206 39.7941 52.1206H47.0294C49.0274 52.1206 50.647 50.507 50.647 48.5166V41.3086Z" fill="#D7F9FF"/>
<path d="M33 41.3086C33 39.3182 31.3803 37.7046 29.3823 37.7046H22.147C20.1491 37.7046 18.5294 39.3182 18.5294 41.3086V48.5166C18.5294 50.507 20.1491 52.1206 22.147 52.1206H29.3823C31.3803 52.1206 33 50.507 33 48.5166V41.3086Z" fill="#D7F9FF"/>
<path d="M33 23.1343C33 21.1438 31.3803 19.5303 29.3823 19.5303H22.147C20.1491 19.5303 18.5294 21.1438 18.5294 23.1343V30.3422C18.5294 32.3327 20.1491 33.9462 22.147 33.9462H29.3823C31.3803 33.9462 33 32.3327 33 30.3422V23.1343Z" fill="#D7F9FF"/>
<path d="M14.5 23.1343C14.5 21.1438 12.8803 19.5303 10.8824 19.5303H3.64706C1.64909 19.5303 0.0294037 21.1438 0.0294037 23.1343V30.3422C0.0294037 32.3327 1.64909 33.9462 3.64706 33.9462H10.8824C12.8803 33.9462 14.5 32.3327 14.5 30.3422V23.1343Z" fill="#D7F9FF"/>
<path d="M14.5 41.3086C14.5 39.3182 12.8803 37.7046 10.8824 37.7046H3.64705C1.64908 37.7046 0.0294037 39.3182 0.0294037 41.3086V48.5166C0.0294037 50.507 1.64908 52.1206 3.64705 52.1206H10.8824C12.8803 52.1206 14.5 50.507 14.5 48.5166V41.3086Z" fill="#D7F9FF"/>
<path d="M14.5 4.59954C14.5 2.60911 12.8803 0.995554 10.8824 0.995554H3.64706C1.64909 0.995554 0.0294037 2.60911 0.0294037 4.59954V11.8075C0.0294037 13.7979 1.64909 15.4115 3.64706 15.4115H10.8824C12.8803 15.4115 14.5 13.7979 14.5 11.8075V4.59954Z" fill="#D7F9FF"/>
<path d="M162.5 3.60399C162.5 1.61356 164.12 0 166.118 0H173.353C175.351 0 176.971 1.61356 176.971 3.60399V10.812C176.971 12.8024 175.351 14.4159 173.353 14.4159H166.118C164.12 14.4159 162.5 12.8024 162.5 10.812V3.60399Z" fill="#D7F9FF"/>
<path d="M87 59.0885C87 57.098 85.3803 55.4845 83.3824 55.4845H76.1471C74.1491 55.4845 72.5294 57.098 72.5294 59.0885V66.2964C72.5294 68.2869 74.1491 69.9004 76.1471 69.9004H83.3824C85.3803 69.9004 87 68.2869 87 66.2964V59.0885Z" fill="#D7F9FF"/>
<path d="M104.353 59.0885C104.353 57.098 102.733 55.4845 100.735 55.4845H93.5C91.502 55.4845 89.8824 57.098 89.8824 59.0885V66.2964C89.8824 68.2869 91.502 69.9004 93.5 69.9004H100.735C102.733 69.9004 104.353 68.2869 104.353 66.2964V59.0885Z" fill="#D7F9FF"/>
</svg>
