<svg width="250" height="159" viewBox="0 0 250 159" fill="none" xmlns="http://www.w3.org/2000/svg">
<path d="M189.441 58.2918C189.441 56.2856 191.061 54.6593 193.059 54.6593H200.294C202.292 54.6593 203.912 56.2856 203.912 58.2918V65.5566C203.912 67.5628 202.292 69.1891 200.294 69.1891H193.059C191.061 69.1891 189.441 67.5628 189.441 65.5566V58.2918Z" fill="#E0FFD0"/>
<path d="M207.529 58.2918C207.529 56.2856 209.149 54.6593 211.147 54.6593H218.382C220.38 54.6593 222 56.2856 222 58.2918V65.5566C222 67.5628 220.38 69.1891 218.382 69.1891H211.147C209.149 69.1891 207.529 67.5628 207.529 65.5566V58.2918Z" fill="#E0FFD0"/>
<path d="M171.353 76.4539C171.353 74.4478 172.973 72.8215 174.97 72.8215H182.206C184.204 72.8215 185.823 74.4478 185.823 76.4539V83.7188C185.823 85.725 184.204 87.3513 182.206 87.3513H174.97C172.973 87.3513 171.353 85.725 171.353 83.7188V76.4539Z" fill="#E0FFD0"/>
<path d="M189.441 76.4539C189.441 74.4478 191.061 72.8215 193.059 72.8215H200.294C202.292 72.8215 203.912 74.4478 203.912 76.4539V83.7188C203.912 85.725 202.292 87.3513 200.294 87.3513H193.059C191.061 87.3513 189.441 85.725 189.441 83.7188V76.4539Z" fill="#E0FFD0"/>
<path d="M207.529 76.4539C207.529 74.4478 209.149 72.8215 211.147 72.8215H218.382C220.38 72.8215 222 74.4478 222 76.4539V83.7188C222 85.725 220.38 87.3513 218.382 87.3513H211.147C209.149 87.3513 207.529 85.725 207.529 83.7188V76.4539Z" fill="#E0FFD0"/>
<path d="M153.265 94.6161C153.265 92.61 154.884 90.9837 156.882 90.9837H164.118C166.116 90.9837 167.735 92.61 167.735 94.6161V101.881C167.735 103.887 166.116 105.513 164.118 105.513H156.882C154.884 105.513 153.265 103.887 153.265 101.881V94.6161Z" fill="#E0FFD0"/>
<path d="M171.353 94.6161C171.353 92.61 172.973 90.9837 174.97 90.9837H182.206C184.204 90.9837 185.823 92.61 185.823 94.6161V101.881C185.823 103.887 184.204 105.513 182.206 105.513H174.97C172.973 105.513 171.353 103.887 171.353 101.881V94.6161Z" fill="#E0FFD0"/>
<path d="M189.441 94.6161C189.441 92.61 191.061 90.9837 193.059 90.9837H200.294C202.292 90.9837 203.912 92.61 203.912 94.6161V101.881C203.912 103.887 202.292 105.513 200.294 105.513H193.059C191.061 105.513 189.441 103.887 189.441 101.881V94.6161Z" fill="#E0FFD0"/>
<path d="M207.529 94.6161C207.529 92.61 209.149 90.9837 211.147 90.9837H218.382C220.38 90.9837 222 92.61 222 94.6161V101.881C222 103.887 220.38 105.513 218.382 105.513H211.147C209.149 105.513 207.529 103.887 207.529 101.881V94.6161Z" fill="#E0FFD0"/>
<path d="M135.176 112.778C135.176 110.772 136.796 109.146 138.794 109.146H146.029C148.027 109.146 149.647 110.772 149.647 112.778V120.043C149.647 122.049 148.027 123.676 146.029 123.676H138.794C136.796 123.676 135.176 122.049 135.176 120.043V112.778Z" fill="#E0FFD0"/>
<path d="M153.265 112.778C153.265 110.772 154.884 109.146 156.882 109.146H164.118C166.116 109.146 167.735 110.772 167.735 112.778V120.043C167.735 122.049 166.116 123.676 164.118 123.676H156.882C154.884 123.676 153.265 122.049 153.265 120.043V112.778Z" fill="#E0FFD0"/>
<path d="M171.353 112.778C171.353 110.772 172.973 109.146 174.97 109.146H182.206C184.204 109.146 185.823 110.772 185.823 112.778V120.043C185.823 122.049 184.204 123.676 182.206 123.676H174.97C172.973 123.676 171.353 122.049 171.353 120.043V112.778Z" fill="#E0FFD0"/>
<path d="M189.441 112.778C189.441 110.772 191.061 109.146 193.059 109.146H200.294C202.292 109.146 203.912 110.772 203.912 112.778V120.043C203.912 122.049 202.292 123.676 200.294 123.676H193.059C191.061 123.676 189.441 122.049 189.441 120.043V112.778Z" fill="#E0FFD0"/>
<path d="M207.529 112.778C207.529 110.772 209.149 109.146 211.147 109.146H218.382C220.38 109.146 222 110.772 222 112.778V120.043C222 122.049 220.38 123.676 218.382 123.676H211.147C209.149 123.676 207.529 122.049 207.529 120.043V112.778Z" fill="#E0FFD0"/>
<path d="M117.088 130.941C117.088 128.934 118.708 127.308 120.706 127.308H127.941C129.939 127.308 131.559 128.934 131.559 130.941V138.205C131.559 140.212 129.939 141.838 127.941 141.838H120.706C118.708 141.838 117.088 140.212 117.088 138.205V130.941Z" fill="#E0FFD0"/>
<path d="M135.176 130.941C135.176 128.934 136.796 127.308 138.794 127.308H146.029C148.027 127.308 149.647 128.934 149.647 130.941V138.205C149.647 140.212 148.027 141.838 146.029 141.838H138.794C136.796 141.838 135.176 140.212 135.176 138.205V130.941Z" fill="#E0FFD0"/>
<path d="M153.265 130.941C153.265 128.934 154.884 127.308 156.882 127.308H164.118C166.116 127.308 167.735 128.934 167.735 130.941V138.205C167.735 140.212 166.116 141.838 164.118 141.838H156.882C154.884 141.838 153.265 140.212 153.265 138.205V130.941Z" fill="#E0FFD0"/>
<path d="M171.353 130.941C171.353 128.934 172.973 127.308 174.97 127.308H182.206C184.204 127.308 185.823 128.934 185.823 130.941V138.205C185.823 140.212 184.204 141.838 182.206 141.838H174.97C172.973 141.838 171.353 140.212 171.353 138.205V130.941Z" fill="#E0FFD0"/>
<path d="M189.441 130.941C189.441 128.934 191.061 127.308 193.059 127.308H200.294C202.292 127.308 203.912 128.934 203.912 130.941V138.205C203.912 140.212 202.292 141.838 200.294 141.838H193.059C191.061 141.838 189.441 140.212 189.441 138.205V130.941Z" fill="#E0FFD0"/>
<path d="M207.529 130.941C207.529 128.934 209.149 127.308 211.147 127.308H218.382C220.38 127.308 222 128.934 222 130.941V138.205C222 140.212 220.38 141.838 218.382 141.838H211.147C209.149 141.838 207.529 140.212 207.529 138.205V130.941Z" fill="#E0FFD0"/>
<path d="M98.9999 149.103C98.9999 147.097 100.62 145.47 102.618 145.47H109.853C111.851 145.47 113.47 147.097 113.47 149.103V156.368C113.47 158.374 111.851 160 109.853 160H102.618C100.62 160 98.9999 158.374 98.9999 156.368V149.103Z" fill="#E0FFD0"/>
<path d="M117.088 149.103C117.088 147.097 118.708 145.47 120.706 145.47H127.941C129.939 145.47 131.559 147.097 131.559 149.103V156.368C131.559 158.374 129.939 160 127.941 160H120.706C118.708 160 117.088 158.374 117.088 156.368V149.103Z" fill="#E0FFD0"/>
<path d="M135.176 149.103C135.176 147.097 136.796 145.47 138.794 145.47H146.029C148.027 145.47 149.647 147.097 149.647 149.103V156.368C149.647 158.374 148.027 160 146.029 160H138.794C136.796 160 135.176 158.374 135.176 156.368V149.103Z" fill="#E0FFD0"/>
<path d="M153.265 149.103C153.265 147.097 154.884 145.47 156.882 145.47H164.118C166.116 145.47 167.735 147.097 167.735 149.103V156.368C167.735 158.374 166.116 160 164.118 160H156.882C154.884 160 153.265 158.374 153.265 156.368V149.103Z" fill="#E0FFD0"/>
<path d="M171.353 149.103C171.353 147.097 172.973 145.47 174.97 145.47H182.206C184.204 145.47 185.823 147.097 185.823 149.103V156.368C185.823 158.374 184.204 160 182.206 160H174.97C172.973 160 171.353 158.374 171.353 156.368V149.103Z" fill="#E0FFD0"/>
<path d="M189.441 149.103C189.441 147.097 191.061 145.47 193.059 145.47H200.294C202.292 145.47 203.912 147.097 203.912 149.103V156.368C203.912 158.374 202.292 160 200.294 160H193.059C191.061 160 189.441 158.374 189.441 156.368V149.103Z" fill="#E0FFD0"/>
<path d="M207.529 149.103C207.529 147.097 209.149 145.47 211.147 145.47H218.382C220.38 145.47 222 147.097 222 149.103V156.368C222 158.374 220.38 160 218.382 160H211.147C209.149 160 207.529 158.374 207.529 156.368V149.103Z" fill="#E0FFD0"/>
<path d="M153.265 58.2919C153.265 56.2857 154.884 54.6594 156.882 54.6594H164.118C166.116 54.6594 167.735 56.2857 167.735 58.2919V65.5567C167.735 67.5629 166.116 69.1892 164.118 69.1892H156.882C154.884 69.1892 153.265 67.5629 153.265 65.5567V58.2919Z" fill="#E0FFD0"/>
<path d="M171.353 58.2919C171.353 56.2857 172.973 54.6594 174.97 54.6594H182.206C184.204 54.6594 185.823 56.2857 185.823 58.2919V65.5567C185.823 67.5629 184.204 69.1892 182.206 69.1892H174.97C172.973 69.1892 171.353 67.5629 171.353 65.5567V58.2919Z" fill="#E0FFD0"/>
<path d="M135.176 76.454C135.176 74.4479 136.796 72.8216 138.794 72.8216H146.029C148.027 72.8216 149.647 74.4479 149.647 76.454V83.7189C149.647 85.7251 148.027 87.3514 146.029 87.3514H138.794C136.796 87.3514 135.176 85.7251 135.176 83.7189V76.454Z" fill="#E0FFD0"/>
<path d="M153.265 76.454C153.265 74.4479 154.884 72.8216 156.882 72.8216H164.118C166.116 72.8216 167.735 74.4479 167.735 76.454V83.7189C167.735 85.7251 166.116 87.3514 164.118 87.3514H156.882C154.884 87.3514 153.265 85.7251 153.265 83.7189V76.454Z" fill="#E0FFD0"/>
<path d="M98.9999 130.906C98.9999 128.9 100.62 127.274 102.618 127.274H109.853C111.851 127.274 113.47 128.9 113.47 130.906V138.171C113.47 140.177 111.851 141.803 109.853 141.803H102.618C100.62 141.803 98.9999 140.177 98.9999 138.171V130.906Z" fill="#E0FFD0"/>
<path d="M117.088 94.6162C117.088 92.6101 118.708 90.9838 120.706 90.9838H127.941C129.939 90.9838 131.559 92.6101 131.559 94.6162V101.881C131.559 103.887 129.939 105.514 127.941 105.514H120.706C118.708 105.514 117.088 103.887 117.088 101.881V94.6162Z" fill="#E0FFD0"/>
<path d="M135.176 94.6162C135.176 92.6101 136.796 90.9838 138.794 90.9838H146.029C148.027 90.9838 149.647 92.6101 149.647 94.6162V101.881C149.647 103.887 148.027 105.514 146.029 105.514H138.794C136.796 105.514 135.176 103.887 135.176 101.881V94.6162Z" fill="#E0FFD0"/>
<path d="M171.353 40.3717C171.353 38.3655 172.973 36.7392 174.97 36.7392H182.206C184.204 36.7392 185.823 38.3655 185.823 40.3717V47.6365C185.823 49.6427 184.204 51.269 182.206 51.269H174.97C172.973 51.269 171.353 49.6427 171.353 47.6365V40.3717Z" fill="#E0FFD0"/>
<path d="M189 40.3717C189 38.3655 190.62 36.7392 192.618 36.7392H199.853C201.851 36.7392 203.47 38.3655 203.47 40.3717V47.6365C203.47 49.6427 201.851 51.269 199.853 51.269H192.618C190.62 51.269 189 49.6427 189 47.6365V40.3717Z" fill="#E0FFD0"/>
<path d="M98.9999 112.778C98.9999 110.772 100.62 109.146 102.618 109.146H109.853C111.851 109.146 113.47 110.772 113.47 112.778V120.043C113.47 122.049 111.851 123.676 109.853 123.676H102.618C100.62 123.676 98.9999 122.049 98.9999 120.043V112.778Z" fill="#E0FFD0"/>
<path d="M117.088 112.778C117.088 110.772 118.708 109.146 120.706 109.146H127.941C129.939 109.146 131.559 110.772 131.559 112.778V120.043C131.559 122.049 129.939 123.676 127.941 123.676H120.706C118.708 123.676 117.088 122.049 117.088 120.043V112.778Z" fill="#E0FFD0"/>
<path d="M189 22.0538C189 20.0477 190.62 18.4214 192.618 18.4214H199.853C201.851 18.4214 203.47 20.0477 203.47 22.0538V29.3187C203.47 31.3248 201.851 32.9511 199.853 32.9511H192.618C190.62 32.9511 189 31.3248 189 29.3187V22.0538Z" fill="#E0FFD0"/>
<path d="M207.5 22.0538C207.5 20.0477 209.12 18.4214 211.118 18.4214H218.353C220.351 18.4214 221.97 20.0477 221.97 22.0538V29.3187C221.97 31.3249 220.351 32.9511 218.353 32.9511H211.118C209.12 32.9511 207.5 31.3249 207.5 29.3187V22.0538Z" fill="#E0FFD0"/>
<path d="M207.5 40.3717C207.5 38.3655 209.12 36.7392 211.118 36.7392H218.353C220.351 36.7392 221.97 38.3655 221.97 40.3717V47.6365C221.97 49.6427 220.351 51.269 218.353 51.269H211.118C209.12 51.269 207.5 49.6427 207.5 47.6365V40.3717Z" fill="#E0FFD0"/>
<path d="M243.441 58.2918C243.441 56.2856 245.061 54.6593 247.059 54.6593H254.294C256.292 54.6593 257.912 56.2856 257.912 58.2918V65.5566C257.912 67.5628 256.292 69.1891 254.294 69.1891H247.059C245.061 69.1891 243.441 67.5628 243.441 65.5566V58.2918Z" fill="#E0FFD0"/>
<path d="M261.529 58.2918C261.529 56.2856 263.149 54.6593 265.147 54.6593H272.382C274.38 54.6593 276 56.2856 276 58.2918V65.5566C276 67.5628 274.38 69.1891 272.382 69.1891H265.147C263.149 69.1891 261.529 67.5628 261.529 65.5566V58.2918Z" fill="#E0FFD0"/>
<path d="M225.353 76.4539C225.353 74.4478 226.972 72.8215 228.97 72.8215H236.206C238.204 72.8215 239.823 74.4478 239.823 76.4539V83.7188C239.823 85.725 238.204 87.3513 236.206 87.3513H228.97C226.972 87.3513 225.353 85.725 225.353 83.7188V76.4539Z" fill="#E0FFD0"/>
<path d="M243.441 76.4539C243.441 74.4478 245.061 72.8215 247.059 72.8215H254.294C256.292 72.8215 257.912 74.4478 257.912 76.4539V83.7188C257.912 85.725 256.292 87.3513 254.294 87.3513H247.059C245.061 87.3513 243.441 85.725 243.441 83.7188V76.4539Z" fill="#E0FFD0"/>
<path d="M261.529 76.4539C261.529 74.4478 263.149 72.8215 265.147 72.8215H272.382C274.38 72.8215 276 74.4478 276 76.4539V83.7188C276 85.725 274.38 87.3513 272.382 87.3513H265.147C263.149 87.3513 261.529 85.725 261.529 83.7188V76.4539Z" fill="#E0FFD0"/>
<path d="M225.353 94.6161C225.353 92.61 226.972 90.9837 228.97 90.9837H236.206C238.204 90.9837 239.823 92.61 239.823 94.6161V101.881C239.823 103.887 238.204 105.513 236.206 105.513H228.97C226.972 105.513 225.353 103.887 225.353 101.881V94.6161Z" fill="#E0FFD0"/>
<path d="M243.441 94.6161C243.441 92.61 245.061 90.9837 247.059 90.9837H254.294C256.292 90.9837 257.912 92.61 257.912 94.6161V101.881C257.912 103.887 256.292 105.513 254.294 105.513H247.059C245.061 105.513 243.441 103.887 243.441 101.881V94.6161Z" fill="#E0FFD0"/>
<path d="M261.529 94.6161C261.529 92.61 263.149 90.9837 265.147 90.9837H272.382C274.38 90.9837 276 92.61 276 94.6161V101.881C276 103.887 274.38 105.513 272.382 105.513H265.147C263.149 105.513 261.529 103.887 261.529 101.881V94.6161Z" fill="#E0FFD0"/>
<path d="M225.353 112.778C225.353 110.772 226.972 109.146 228.97 109.146H236.206C238.204 109.146 239.823 110.772 239.823 112.778V120.043C239.823 122.049 238.204 123.676 236.206 123.676H228.97C226.972 123.676 225.353 122.049 225.353 120.043V112.778Z" fill="#E0FFD0"/>
<path d="M243.441 112.778C243.441 110.772 245.061 109.146 247.059 109.146H254.294C256.292 109.146 257.912 110.772 257.912 112.778V120.043C257.912 122.049 256.292 123.676 254.294 123.676H247.059C245.061 123.676 243.441 122.049 243.441 120.043V112.778Z" fill="#E0FFD0"/>
<path d="M261.529 112.778C261.529 110.772 263.149 109.146 265.147 109.146H272.382C274.38 109.146 276 110.772 276 112.778V120.043C276 122.049 274.38 123.676 272.382 123.676H265.147C263.149 123.676 261.529 122.049 261.529 120.043V112.778Z" fill="#E0FFD0"/>
<path d="M81.6469 130.94C81.6469 128.934 83.2666 127.308 85.2646 127.308H92.4999C94.4978 127.308 96.1175 128.934 96.1175 130.94V138.205C96.1175 140.212 94.4978 141.838 92.4999 141.838H85.2646C83.2666 141.838 81.6469 140.212 81.6469 138.205V130.94Z" fill="#E0FFD0"/>
<path d="M225.353 130.94C225.353 128.934 226.972 127.308 228.97 127.308H236.206C238.204 127.308 239.823 128.934 239.823 130.94V138.205C239.823 140.212 238.204 141.838 236.206 141.838H228.97C226.972 141.838 225.353 140.212 225.353 138.205V130.94Z" fill="#E0FFD0"/>
<path d="M243.441 130.94C243.441 128.934 245.061 127.308 247.059 127.308H254.294C256.292 127.308 257.912 128.934 257.912 130.94V138.205C257.912 140.212 256.292 141.838 254.294 141.838H247.059C245.061 141.838 243.441 140.212 243.441 138.205V130.94Z" fill="#E0FFD0"/>
<path d="M261.529 130.94C261.529 128.934 263.149 127.308 265.147 127.308H272.382C274.38 127.308 276 128.934 276 130.94V138.205C276 140.212 274.38 141.838 272.382 141.838H265.147C263.149 141.838 261.529 140.212 261.529 138.205V130.94Z" fill="#E0FFD0"/>
<path d="M81.6469 149.103C81.6469 147.097 83.2666 145.47 85.2646 145.47H92.4999C94.4979 145.47 96.1175 147.097 96.1175 149.103V156.368C96.1175 158.374 94.4979 160 92.4999 160H85.2646C83.2666 160 81.6469 158.374 81.6469 156.368V149.103Z" fill="#E0FFD0"/>
<path d="M63.3823 149.103C63.3823 147.097 65.002 145.47 66.9999 145.47H74.2352C76.2332 145.47 77.8529 147.097 77.8529 149.103V156.368C77.8529 158.374 76.2332 160 74.2352 160H66.9999C65.002 160 63.3823 158.374 63.3823 156.368V149.103Z" fill="#E0FFD0"/>
<path d="M225.353 149.103C225.353 147.097 226.972 145.47 228.97 145.47H236.206C238.204 145.47 239.823 147.097 239.823 149.103V156.368C239.823 158.374 238.204 160 236.206 160H228.97C226.972 160 225.353 158.374 225.353 156.368V149.103Z" fill="#E0FFD0"/>
<path d="M243.441 149.103C243.441 147.097 245.061 145.47 247.059 145.47H254.294C256.292 145.47 257.912 147.097 257.912 149.103V156.368C257.912 158.374 256.292 160 254.294 160H247.059C245.061 160 243.441 158.374 243.441 156.368V149.103Z" fill="#E0FFD0"/>
<path d="M261.529 149.103C261.529 147.097 263.149 145.47 265.147 145.47H272.382C274.38 145.47 276 147.097 276 149.103V156.368C276 158.374 274.38 160 272.382 160H265.147C263.149 160 261.529 158.374 261.529 156.368V149.103Z" fill="#E0FFD0"/>
<path d="M225.353 58.2919C225.353 56.2857 226.972 54.6594 228.97 54.6594H236.206C238.204 54.6594 239.823 56.2857 239.823 58.2919V65.5567C239.823 67.5629 238.204 69.1892 236.206 69.1892H228.97C226.972 69.1892 225.353 67.5629 225.353 65.5567V58.2919Z" fill="#E0FFD0"/>
<path d="M225.353 22.0538C225.353 20.0477 226.972 18.4214 228.97 18.4214H236.206C238.204 18.4214 239.823 20.0477 239.823 22.0538V29.3187C239.823 31.3249 238.204 32.9512 236.206 32.9512H228.97C226.972 32.9512 225.353 31.3249 225.353 29.3187V22.0538Z" fill="#E0FFD0"/>
<path d="M207.265 3.63241C207.265 1.62627 208.884 0 210.882 0H218.117C220.115 0 221.735 1.62627 221.735 3.63241V10.8973C221.735 12.9035 220.115 14.5298 218.117 14.5298H210.882C208.884 14.5298 207.265 12.9035 207.265 10.8973V3.63241Z" fill="#E0FFD0"/>
<path d="M261.5 3.63247C261.5 1.62633 263.119 3.06166e-05 265.117 3.06166e-05H272.353C274.351 3.06166e-05 275.97 1.62633 275.97 3.63247V10.8973C275.97 12.9035 274.351 14.5298 272.353 14.5298H265.117C263.119 14.5298 261.5 12.9035 261.5 10.8973V3.63247Z" fill="#E0FFD0"/>
<path d="M225.353 40.3717C225.353 38.3655 226.972 36.7392 228.97 36.7392H236.206C238.204 36.7392 239.823 38.3655 239.823 40.3717V47.6365C239.823 49.6427 238.204 51.269 236.206 51.269H228.97C226.972 51.269 225.353 49.6427 225.353 47.6365V40.3717Z" fill="#E0FFD0"/>
<path d="M243 40.3717C243 38.3655 244.619 36.7392 246.617 36.7392H253.853C255.851 36.7392 257.47 38.3655 257.47 40.3717V47.6365C257.47 49.6427 255.851 51.269 253.853 51.269H246.617C244.619 51.269 243 49.6427 243 47.6365V40.3717Z" fill="#E0FFD0"/>
<path d="M243.441 3.63247C243.441 1.62633 245.061 3.06166e-05 247.059 3.06166e-05H254.294C256.292 3.06166e-05 257.912 1.62633 257.912 3.63247V10.8973C257.912 12.9035 256.292 14.5298 254.294 14.5298H247.059C245.061 14.5298 243.441 12.9035 243.441 10.8973V3.63247Z" fill="#E0FFD0"/>
<path d="M225.353 3.63247C225.353 1.62633 226.972 3.06166e-05 228.97 3.06166e-05H236.206C238.204 3.06166e-05 239.823 1.62633 239.823 3.63247V10.8973C239.823 12.9035 238.204 14.5298 236.206 14.5298H228.97C226.972 14.5298 225.353 12.9035 225.353 10.8973V3.63247Z" fill="#E0FFD0"/>
<path d="M243 22.0538C243 20.0477 244.62 18.4214 246.617 18.4214H253.853C255.851 18.4214 257.47 20.0477 257.47 22.0538V29.3187C257.47 31.3248 255.851 32.9511 253.853 32.9511H246.617C244.62 32.9511 243 31.3248 243 29.3187V22.0538Z" fill="#E0FFD0"/>
<path d="M261.5 22.0538C261.5 20.0477 263.119 18.4214 265.117 18.4214H272.353C274.351 18.4214 275.97 20.0477 275.97 22.0538V29.3187C275.97 31.3249 274.351 32.9511 272.353 32.9511H265.117C263.119 32.9511 261.5 31.3249 261.5 29.3187V22.0538Z" fill="#E0FFD0"/>
<path d="M261.5 40.3717C261.5 38.3655 263.119 36.7392 265.117 36.7392H272.353C274.351 36.7392 275.97 38.3655 275.97 40.3717V47.6365C275.97 49.6427 274.351 51.269 272.353 51.269H265.117C263.119 51.269 261.5 49.6427 261.5 47.6365V40.3717Z" fill="#E0FFD0"/>
<path d="M59.5587 58.2918C59.5587 56.2856 57.9391 54.6593 55.9411 54.6593H48.7058C46.7078 54.6593 45.0882 56.2856 45.0882 58.2918V65.5566C45.0882 67.5628 46.7078 69.1891 48.7058 69.1891H55.9411C57.9391 69.1891 59.5587 67.5628 59.5587 65.5566V58.2918Z" fill="#E0FFD0"/>
<path d="M41.4705 58.2918C41.4705 56.2856 39.8508 54.6593 37.8528 54.6593H30.6176C28.6196 54.6593 26.9999 56.2856 26.9999 58.2918V65.5566C26.9999 67.5628 28.6196 69.1891 30.6176 69.1891H37.8528C39.8508 69.1891 41.4705 67.5628 41.4705 65.5566V58.2918Z" fill="#E0FFD0"/>
<path d="M77.647 76.4539C77.647 74.4478 76.0273 72.8215 74.0293 72.8215H66.794C64.7961 72.8215 63.1764 74.4478 63.1764 76.4539V83.7188C63.1764 85.725 64.7961 87.3513 66.794 87.3513H74.0293C76.0273 87.3513 77.647 85.725 77.647 83.7188V76.4539Z" fill="#E0FFD0"/>
<path d="M59.5587 76.4539C59.5587 74.4478 57.9391 72.8215 55.9411 72.8215H48.7058C46.7078 72.8215 45.0882 74.4478 45.0882 76.4539V83.7188C45.0882 85.725 46.7078 87.3513 48.7058 87.3513H55.9411C57.9391 87.3513 59.5587 85.725 59.5587 83.7188V76.4539Z" fill="#E0FFD0"/>
<path d="M41.4705 76.4539C41.4705 74.4478 39.8508 72.8215 37.8528 72.8215H30.6176C28.6196 72.8215 26.9999 74.4478 26.9999 76.4539V83.7188C26.9999 85.725 28.6196 87.3513 30.6176 87.3513H37.8528C39.8508 87.3513 41.4705 85.725 41.4705 83.7188V76.4539Z" fill="#E0FFD0"/>
<path d="M95.7352 94.6161C95.7352 92.61 94.1155 90.9837 92.1176 90.9837H84.8823C82.8843 90.9837 81.2646 92.61 81.2646 94.6161V101.881C81.2646 103.887 82.8843 105.513 84.8823 105.513H92.1176C94.1155 105.513 95.7352 103.887 95.7352 101.881V94.6161Z" fill="#E0FFD0"/>
<path d="M77.647 94.6161C77.647 92.61 76.0273 90.9837 74.0293 90.9837H66.794C64.7961 90.9837 63.1764 92.61 63.1764 94.6161V101.881C63.1764 103.887 64.7961 105.513 66.794 105.513H74.0293C76.0273 105.513 77.647 103.887 77.647 101.881V94.6161Z" fill="#E0FFD0"/>
<path d="M59.5587 94.6161C59.5587 92.61 57.9391 90.9837 55.9411 90.9837H48.7058C46.7078 90.9837 45.0882 92.61 45.0882 94.6161V101.881C45.0882 103.887 46.7078 105.513 48.7058 105.513H55.9411C57.9391 105.513 59.5587 103.887 59.5587 101.881V94.6161Z" fill="#E0FFD0"/>
<path d="M41.4705 94.6161C41.4705 92.61 39.8508 90.9837 37.8528 90.9837H30.6176C28.6196 90.9837 26.9999 92.61 26.9999 94.6161V101.881C26.9999 103.887 28.6196 105.513 30.6176 105.513H37.8528C39.8508 105.513 41.4705 103.887 41.4705 101.881V94.6161Z" fill="#E0FFD0"/>
<path d="M113.823 112.778C113.823 110.772 112.204 109.146 110.206 109.146H102.971C100.973 109.146 99.3529 110.772 99.3529 112.778V120.043C99.3529 122.049 100.973 123.676 102.971 123.676H110.206C112.204 123.676 113.823 122.049 113.823 120.043V112.778Z" fill="#E0FFD0"/>
<path d="M95.7352 112.778C95.7352 110.772 94.1155 109.146 92.1176 109.146H84.8823C82.8843 109.146 81.2646 110.772 81.2646 112.778V120.043C81.2646 122.049 82.8843 123.676 84.8823 123.676H92.1176C94.1155 123.676 95.7352 122.049 95.7352 120.043V112.778Z" fill="#E0FFD0"/>
<path d="M77.647 112.778C77.647 110.772 76.0273 109.146 74.0293 109.146H66.794C64.7961 109.146 63.1764 110.772 63.1764 112.778V120.043C63.1764 122.049 64.7961 123.676 66.794 123.676H74.0293C76.0273 123.676 77.647 122.049 77.647 120.043V112.778Z" fill="#E0FFD0"/>
<path d="M59.5587 112.778C59.5587 110.772 57.9391 109.146 55.9411 109.146H48.7058C46.7078 109.146 45.0882 110.772 45.0882 112.778V120.043C45.0882 122.049 46.7078 123.676 48.7058 123.676H55.9411C57.9391 123.676 59.5587 122.049 59.5587 120.043V112.778Z" fill="#E0FFD0"/>
<path d="M41.4705 112.778C41.4705 110.772 39.8508 109.146 37.8528 109.146H30.6176C28.6196 109.146 26.9999 110.772 26.9999 112.778V120.043C26.9999 122.049 28.6196 123.676 30.6176 123.676H37.8528C39.8508 123.676 41.4705 122.049 41.4705 120.043V112.778Z" fill="#E0FFD0"/>
<path d="M131.912 130.941C131.912 128.934 130.292 127.308 128.294 127.308H121.059C119.061 127.308 117.441 128.934 117.441 130.941V138.205C117.441 140.212 119.061 141.838 121.059 141.838H128.294C130.292 141.838 131.912 140.212 131.912 138.205V130.941Z" fill="#E0FFD0"/>
<path d="M113.823 130.941C113.823 128.934 112.204 127.308 110.206 127.308H102.971C100.973 127.308 99.3529 128.934 99.3529 130.941V138.205C99.3529 140.212 100.973 141.838 102.971 141.838H110.206C112.204 141.838 113.823 140.212 113.823 138.205V130.941Z" fill="#E0FFD0"/>
<path d="M95.7352 130.941C95.7352 128.934 94.1155 127.308 92.1176 127.308H84.8823C82.8843 127.308 81.2646 128.934 81.2646 130.941V138.205C81.2646 140.212 82.8843 141.838 84.8823 141.838H92.1176C94.1155 141.838 95.7352 140.212 95.7352 138.205V130.941Z" fill="#E0FFD0"/>
<path d="M77.647 130.941C77.647 128.934 76.0273 127.308 74.0293 127.308H66.794C64.7961 127.308 63.1764 128.934 63.1764 130.941V138.205C63.1764 140.212 64.7961 141.838 66.794 141.838H74.0293C76.0273 141.838 77.647 140.212 77.647 138.205V130.941Z" fill="#E0FFD0"/>
<path d="M59.5587 130.941C59.5587 128.934 57.9391 127.308 55.9411 127.308H48.7058C46.7078 127.308 45.0882 128.934 45.0882 130.941V138.205C45.0882 140.212 46.7078 141.838 48.7058 141.838H55.9411C57.9391 141.838 59.5587 140.212 59.5587 138.205V130.941Z" fill="#E0FFD0"/>
<path d="M41.4705 130.941C41.4705 128.934 39.8508 127.308 37.8528 127.308H30.6176C28.6196 127.308 26.9999 128.934 26.9999 130.941V138.205C26.9999 140.212 28.6196 141.838 30.6176 141.838H37.8528C39.8508 141.838 41.4705 140.212 41.4705 138.205V130.941Z" fill="#E0FFD0"/>
<path d="M150 149.103C150 147.097 148.38 145.47 146.382 145.47H139.147C137.149 145.47 135.529 147.097 135.529 149.103V156.368C135.529 158.374 137.149 160 139.147 160H146.382C148.38 160 150 158.374 150 156.368V149.103Z" fill="#E0FFD0"/>
<path d="M131.912 149.103C131.912 147.097 130.292 145.47 128.294 145.47H121.059C119.061 145.47 117.441 147.097 117.441 149.103V156.368C117.441 158.374 119.061 160 121.059 160H128.294C130.292 160 131.912 158.374 131.912 156.368V149.103Z" fill="#E0FFD0"/>
<path d="M113.823 149.103C113.823 147.097 112.204 145.47 110.206 145.47H102.971C100.973 145.47 99.3529 147.097 99.3529 149.103V156.368C99.3529 158.374 100.973 160 102.971 160H110.206C112.204 160 113.823 158.374 113.823 156.368V149.103Z" fill="#E0FFD0"/>
<path d="M95.7352 149.103C95.7352 147.097 94.1155 145.47 92.1176 145.47H84.8823C82.8843 145.47 81.2646 147.097 81.2646 149.103V156.368C81.2646 158.374 82.8843 160 84.8823 160H92.1176C94.1155 160 95.7352 158.374 95.7352 156.368V149.103Z" fill="#E0FFD0"/>
<path d="M77.647 149.103C77.647 147.097 76.0273 145.47 74.0293 145.47H66.794C64.7961 145.47 63.1764 147.097 63.1764 149.103V156.368C63.1764 158.374 64.7961 160 66.794 160H74.0293C76.0273 160 77.647 158.374 77.647 156.368V149.103Z" fill="#E0FFD0"/>
<path d="M59.5587 149.103C59.5587 147.097 57.9391 145.47 55.9411 145.47H48.7058C46.7078 145.47 45.0882 147.097 45.0882 149.103V156.368C45.0882 158.374 46.7078 160 48.7058 160H55.9411C57.9391 160 59.5587 158.374 59.5587 156.368V149.103Z" fill="#E0FFD0"/>
<path d="M41.4705 149.103C41.4705 147.097 39.8508 145.47 37.8528 145.47H30.6176C28.6196 145.47 26.9999 147.097 26.9999 149.103V156.368C26.9999 158.374 28.6196 160 30.6176 160H37.8528C39.8508 160 41.4705 158.374 41.4705 156.368V149.103Z" fill="#E0FFD0"/>
<path d="M95.7352 58.2919C95.7352 56.2857 94.1155 54.6594 92.1176 54.6594H84.8823C82.8843 54.6594 81.2646 56.2857 81.2646 58.2919V65.5567C81.2646 67.5629 82.8843 69.1892 84.8823 69.1892H92.1176C94.1155 69.1892 95.7352 67.5629 95.7352 65.5567V58.2919Z" fill="#E0FFD0"/>
<path d="M77.647 58.2919C77.647 56.2857 76.0273 54.6594 74.0293 54.6594H66.794C64.7961 54.6594 63.1764 56.2857 63.1764 58.2919V65.5567C63.1764 67.5629 64.7961 69.1892 66.794 69.1892H74.0293C76.0273 69.1892 77.647 67.5629 77.647 65.5567V58.2919Z" fill="#E0FFD0"/>
<path d="M113.823 76.454C113.823 74.4479 112.204 72.8216 110.206 72.8216H102.971C100.973 72.8216 99.3529 74.4479 99.3529 76.454V83.7189C99.3529 85.7251 100.973 87.3514 102.971 87.3514H110.206C112.204 87.3514 113.823 85.7251 113.823 83.7189V76.454Z" fill="#E0FFD0"/>
<path d="M95.7352 76.454C95.7352 74.4479 94.1155 72.8216 92.1176 72.8216H84.8823C82.8843 72.8216 81.2646 74.4479 81.2646 76.454V83.7189C81.2646 85.7251 82.8843 87.3514 84.8823 87.3514H92.1176C94.1155 87.3514 95.7352 85.7251 95.7352 83.7189V76.454Z" fill="#E0FFD0"/>
<path d="M150 130.906C150 128.9 148.38 127.274 146.382 127.274H139.147C137.149 127.274 135.529 128.9 135.529 130.906V138.171C135.529 140.177 137.149 141.803 139.147 141.803H146.382C148.38 141.803 150 140.177 150 138.171V130.906Z" fill="#E0FFD0"/>
<path d="M131.912 94.6162C131.912 92.6101 130.292 90.9838 128.294 90.9838H121.059C119.061 90.9838 117.441 92.6101 117.441 94.6162V101.881C117.441 103.887 119.061 105.514 121.059 105.514H128.294C130.292 105.514 131.912 103.887 131.912 101.881V94.6162Z" fill="#E0FFD0"/>
<path d="M113.823 94.6162C113.823 92.6101 112.204 90.9838 110.206 90.9838H102.971C100.973 90.9838 99.3529 92.6101 99.3529 94.6162V101.881C99.3529 103.887 100.973 105.514 102.971 105.514H110.206C112.204 105.514 113.823 103.887 113.823 101.881V94.6162Z" fill="#E0FFD0"/>
<path d="M77.647 40.3717C77.647 38.3655 76.0273 36.7392 74.0293 36.7392H66.794C64.7961 36.7392 63.1764 38.3655 63.1764 40.3717V47.6365C63.1764 49.6427 64.7961 51.269 66.794 51.269H74.0293C76.0273 51.269 77.647 49.6427 77.647 47.6365V40.3717Z" fill="#E0FFD0"/>
<path d="M59.9999 40.3717C59.9999 38.3655 58.3802 36.7392 56.3823 36.7392H49.147C47.149 36.7392 45.5293 38.3655 45.5293 40.3717V47.6365C45.5293 49.6427 47.149 51.269 49.147 51.269H56.3823C58.3802 51.269 59.9999 49.6427 59.9999 47.6365V40.3717Z" fill="#E0FFD0"/>
<path d="M150 112.778C150 110.772 148.38 109.146 146.382 109.146H139.147C137.149 109.146 135.529 110.772 135.529 112.778V120.043C135.529 122.049 137.149 123.676 139.147 123.676H146.382C148.38 123.676 150 122.049 150 120.043V112.778Z" fill="#E0FFD0"/>
<path d="M131.912 112.778C131.912 110.772 130.292 109.146 128.294 109.146H121.059C119.061 109.146 117.441 110.772 117.441 112.778V120.043C117.441 122.049 119.061 123.676 121.059 123.676H128.294C130.292 123.676 131.912 122.049 131.912 120.043V112.778Z" fill="#E0FFD0"/>
<path d="M59.9999 22.0538C59.9999 20.0477 58.3802 18.4214 56.3823 18.4214H49.147C47.149 18.4214 45.5293 20.0477 45.5293 22.0538V29.3187C45.5293 31.3248 47.149 32.9511 49.147 32.9511H56.3823C58.3802 32.9511 59.9999 31.3248 59.9999 29.3187V22.0538Z" fill="#E0FFD0"/>
<path d="M41.4999 22.0538C41.4999 20.0477 39.8802 18.4214 37.8823 18.4214H30.647C28.649 18.4214 27.0293 20.0477 27.0293 22.0538V29.3187C27.0293 31.3249 28.649 32.9511 30.647 32.9511H37.8823C39.8802 32.9511 41.4999 31.3249 41.4999 29.3187V22.0538Z" fill="#E0FFD0"/>
<path d="M41.4999 40.3717C41.4999 38.3655 39.8802 36.7392 37.8823 36.7392H30.647C28.649 36.7392 27.0293 38.3655 27.0293 40.3717V47.6365C27.0293 49.6427 28.649 51.269 30.647 51.269H37.8823C39.8802 51.269 41.4999 49.6427 41.4999 47.6365V40.3717Z" fill="#E0FFD0"/>
<path d="M5.55881 58.2918C5.55881 56.2856 3.93913 54.6593 1.94116 54.6593H-5.29413C-7.2921 54.6593 -8.91177 56.2856 -8.91177 58.2918V65.5566C-8.91177 67.5628 -7.2921 69.1891 -5.29413 69.1891H1.94116C3.93913 69.1891 5.55881 67.5628 5.55881 65.5566V58.2918Z" fill="#E0FFD0"/>
<path d="M-12.5294 58.2918C-12.5294 56.2856 -14.1491 54.6593 -16.1471 54.6593H-23.3824C-25.3803 54.6593 -27 56.2856 -27 58.2918V65.5566C-27 67.5628 -25.3803 69.1891 -23.3824 69.1891H-16.1471C-14.1491 69.1891 -12.5294 67.5628 -12.5294 65.5566V58.2918Z" fill="#E0FFD0"/>
<path d="M23.647 76.4539C23.647 74.4478 22.0274 72.8215 20.0294 72.8215H12.7941C10.7961 72.8215 9.17645 74.4478 9.17645 76.4539V83.7188C9.17645 85.725 10.7961 87.3513 12.7941 87.3513H20.0294C22.0274 87.3513 23.647 85.725 23.647 83.7188V76.4539Z" fill="#E0FFD0"/>
<path d="M5.55881 76.4539C5.55881 74.4478 3.93913 72.8215 1.94116 72.8215H-5.29413C-7.2921 72.8215 -8.91177 74.4478 -8.91177 76.4539V83.7188C-8.91177 85.725 -7.2921 87.3513 -5.29413 87.3513H1.94116C3.93913 87.3513 5.55881 85.725 5.55881 83.7188V76.4539Z" fill="#E0FFD0"/>
<path d="M-12.5294 76.4539C-12.5294 74.4478 -14.1491 72.8215 -16.1471 72.8215H-23.3824C-25.3803 72.8215 -27 74.4478 -27 76.4539V83.7188C-27 85.725 -25.3803 87.3513 -23.3824 87.3513H-16.1471C-14.1491 87.3513 -12.5294 85.725 -12.5294 83.7188V76.4539Z" fill="#E0FFD0"/>
<path d="M23.647 94.6161C23.647 92.61 22.0274 90.9837 20.0294 90.9837H12.7941C10.7961 90.9837 9.17645 92.61 9.17645 94.6161V101.881C9.17645 103.887 10.7961 105.513 12.7941 105.513H20.0294C22.0274 105.513 23.647 103.887 23.647 101.881V94.6161Z" fill="#E0FFD0"/>
<path d="M5.55881 94.6161C5.55881 92.61 3.93913 90.9837 1.94116 90.9837H-5.29413C-7.2921 90.9837 -8.91177 92.61 -8.91177 94.6161V101.881C-8.91177 103.887 -7.2921 105.513 -5.29413 105.513H1.94116C3.93913 105.513 5.55881 103.887 5.55881 101.881V94.6161Z" fill="#E0FFD0"/>
<path d="M-12.5294 94.6161C-12.5294 92.61 -14.1491 90.9837 -16.1471 90.9837H-23.3824C-25.3803 90.9837 -27 92.61 -27 94.6161V101.881C-27 103.887 -25.3803 105.513 -23.3824 105.513H-16.1471C-14.1491 105.513 -12.5294 103.887 -12.5294 101.881V94.6161Z" fill="#E0FFD0"/>
<path d="M23.647 112.778C23.647 110.772 22.0274 109.146 20.0294 109.146H12.7941C10.7961 109.146 9.17645 110.772 9.17645 112.778V120.043C9.17645 122.049 10.7961 123.676 12.7941 123.676H20.0294C22.0274 123.676 23.647 122.049 23.647 120.043V112.778Z" fill="#E0FFD0"/>
<path d="M5.55881 112.778C5.55881 110.772 3.93913 109.146 1.94116 109.146H-5.29413C-7.2921 109.146 -8.91177 110.772 -8.91177 112.778V120.043C-8.91177 122.049 -7.2921 123.676 -5.29413 123.676H1.94116C3.93913 123.676 5.55881 122.049 5.55881 120.043V112.778Z" fill="#E0FFD0"/>
<path d="M-12.5294 112.778C-12.5294 110.772 -14.1491 109.146 -16.1471 109.146H-23.3824C-25.3803 109.146 -27 110.772 -27 112.778V120.043C-27 122.049 -25.3803 123.676 -23.3824 123.676H-16.1471C-14.1491 123.676 -12.5294 122.049 -12.5294 120.043V112.778Z" fill="#E0FFD0"/>
<path d="M167.353 130.94C167.353 128.934 165.733 127.308 163.735 127.308H156.5C154.502 127.308 152.882 128.934 152.882 130.94V138.205C152.882 140.212 154.502 141.838 156.5 141.838H163.735C165.733 141.838 167.353 140.212 167.353 138.205V130.94Z" fill="#E0FFD0"/>
<path d="M23.647 130.94C23.647 128.934 22.0274 127.308 20.0294 127.308H12.7941C10.7961 127.308 9.17645 128.934 9.17645 130.94V138.205C9.17645 140.212 10.7961 141.838 12.7941 141.838H20.0294C22.0274 141.838 23.647 140.212 23.647 138.205V130.94Z" fill="#E0FFD0"/>
<path d="M5.55881 130.94C5.55881 128.934 3.93913 127.308 1.94116 127.308H-5.29413C-7.2921 127.308 -8.91177 128.934 -8.91177 130.94V138.205C-8.91177 140.212 -7.2921 141.838 -5.29413 141.838H1.94116C3.93913 141.838 5.55881 140.212 5.55881 138.205V130.94Z" fill="#E0FFD0"/>
<path d="M-12.5294 130.94C-12.5294 128.934 -14.1491 127.308 -16.1471 127.308H-23.3824C-25.3803 127.308 -27 128.934 -27 130.94V138.205C-27 140.212 -25.3803 141.838 -23.3824 141.838H-16.1471C-14.1491 141.838 -12.5294 140.212 -12.5294 138.205V130.94Z" fill="#E0FFD0"/>
<path d="M167.353 149.103C167.353 147.097 165.733 145.47 163.735 145.47H156.5C154.502 145.47 152.882 147.097 152.882 149.103V156.368C152.882 158.374 154.502 160 156.5 160H163.735C165.733 160 167.353 158.374 167.353 156.368V149.103Z" fill="#E0FFD0"/>
<path d="M185.618 149.103C185.618 147.097 183.998 145.47 182 145.47H174.765C172.767 145.47 171.147 147.097 171.147 149.103V156.368C171.147 158.374 172.767 160 174.765 160H182C183.998 160 185.618 158.374 185.618 156.368V149.103Z" fill="#E0FFD0"/>
<path d="M23.647 149.103C23.647 147.097 22.0274 145.47 20.0294 145.47H12.7941C10.7961 145.47 9.17645 147.097 9.17645 149.103V156.368C9.17645 158.374 10.7961 160 12.7941 160H20.0294C22.0274 160 23.647 158.374 23.647 156.368V149.103Z" fill="#E0FFD0"/>
<path d="M5.55881 149.103C5.55881 147.097 3.93913 145.47 1.94116 145.47H-5.29413C-7.2921 145.47 -8.91177 147.097 -8.91177 149.103V156.368C-8.91177 158.374 -7.2921 160 -5.29413 160H1.94116C3.93913 160 5.55881 158.374 5.55881 156.368V149.103Z" fill="#E0FFD0"/>
<path d="M-12.5294 149.103C-12.5294 147.097 -14.1491 145.47 -16.1471 145.47H-23.3824C-25.3803 145.47 -27 147.097 -27 149.103V156.368C-27 158.374 -25.3803 160 -23.3824 160H-16.1471C-14.1491 160 -12.5294 158.374 -12.5294 156.368V149.103Z" fill="#E0FFD0"/>
<path d="M23.647 58.2919C23.647 56.2857 22.0274 54.6594 20.0294 54.6594H12.7941C10.7961 54.6594 9.17645 56.2857 9.17645 58.2919V65.5567C9.17645 67.5629 10.7961 69.1892 12.7941 69.1892H20.0294C22.0274 69.1892 23.647 67.5629 23.647 65.5567V58.2919Z" fill="#E0FFD0"/>
<path d="M23.647 22.0538C23.647 20.0477 22.0274 18.4214 20.0294 18.4214H12.7941C10.7961 18.4214 9.17645 20.0477 9.17645 22.0538V29.3187C9.17645 31.3249 10.7961 32.9512 12.7941 32.9512H20.0294C22.0274 32.9512 23.647 31.3249 23.647 29.3187V22.0538Z" fill="#E0FFD0"/>
<path d="M41.7353 3.63241C41.7353 1.62627 40.1156 0 38.1176 0H30.8823C28.8844 0 27.2647 1.62627 27.2647 3.63241V10.8973C27.2647 12.9035 28.8844 14.5298 30.8823 14.5298H38.1176C40.1156 14.5298 41.7353 12.9035 41.7353 10.8973V3.63241Z" fill="#E0FFD0"/>
<path d="M-12.5 3.63247C-12.5 1.62633 -14.1197 3.06166e-05 -16.1176 3.06166e-05H-23.3529C-25.3509 3.06166e-05 -26.9706 1.62633 -26.9706 3.63247V10.8973C-26.9706 12.9035 -25.3509 14.5298 -23.3529 14.5298H-16.1176C-14.1197 14.5298 -12.5 12.9035 -12.5 10.8973V3.63247Z" fill="#E0FFD0"/>
<path d="M23.647 40.3717C23.647 38.3655 22.0274 36.7392 20.0294 36.7392H12.7941C10.7961 36.7392 9.17645 38.3655 9.17645 40.3717V47.6365C9.17645 49.6427 10.7961 51.269 12.7941 51.269H20.0294C22.0274 51.269 23.647 49.6427 23.647 47.6365V40.3717Z" fill="#E0FFD0"/>
<path d="M6 40.3717C6 38.3655 4.38033 36.7392 2.38235 36.7392H-4.85297C-6.85094 36.7392 -8.47061 38.3655 -8.47061 40.3717V47.6365C-8.47061 49.6427 -6.85094 51.269 -4.85297 51.269H2.38235C4.38033 51.269 6 49.6427 6 47.6365V40.3717Z" fill="#E0FFD0"/>
<path d="M5.55881 3.63247C5.55881 1.62633 3.93913 3.06166e-05 1.94116 3.06166e-05H-5.29413C-7.2921 3.06166e-05 -8.91177 1.62633 -8.91177 3.63247V10.8973C-8.91177 12.9035 -7.2921 14.5298 -5.29413 14.5298H1.94116C3.93913 14.5298 5.55881 12.9035 5.55881 10.8973V3.63247Z" fill="#E0FFD0"/>
<path d="M23.647 3.63247C23.647 1.62633 22.0274 3.06166e-05 20.0294 3.06166e-05H12.7941C10.7961 3.06166e-05 9.17645 1.62633 9.17645 3.63247V10.8973C9.17645 12.9035 10.7961 14.5298 12.7941 14.5298H20.0294C22.0274 14.5298 23.647 12.9035 23.647 10.8973V3.63247Z" fill="#E0FFD0"/>
<path d="M5.99997 22.0538C5.99997 20.0477 4.38029 18.4214 2.38232 18.4214H-4.85297C-6.85094 18.4214 -8.47061 20.0477 -8.47061 22.0538V29.3187C-8.47061 31.3248 -6.85094 32.9511 -4.85297 32.9511H2.38232C4.38029 32.9511 5.99997 31.3248 5.99997 29.3187V22.0538Z" fill="#E0FFD0"/>
<path d="M-12.5 22.0538C-12.5 20.0477 -14.1197 18.4214 -16.1176 18.4214H-23.3529C-25.3509 18.4214 -26.9706 20.0477 -26.9706 22.0538V29.3187C-26.9706 31.3249 -25.3509 32.9511 -23.3529 32.9511H-16.1176C-14.1197 32.9511 -12.5 31.3249 -12.5 29.3187V22.0538Z" fill="#E0FFD0"/>
<path d="M-12.5 40.3717C-12.5 38.3655 -14.1197 36.7392 -16.1176 36.7392H-23.353C-25.3509 36.7392 -26.9706 38.3655 -26.9706 40.3717V47.6365C-26.9706 49.6427 -25.3509 51.269 -23.353 51.269H-16.1176C-14.1197 51.269 -12.5 49.6427 -12.5 47.6365V40.3717Z" fill="#E0FFD0"/>
</svg>
