tg: strike_n<svg width="195" height="42" viewBox="0 0 195 42" fill="none" xmlns="http://www.w3.org/2000/svg">
<path d="M35.3737 21.9197C33.7912 20.2921 32.9999 17.7772 32.9999 14.3749C32.9999 10.9634 33.7912 8.44384 35.3737 6.81626C36.9648 5.17947 39.3472 4.36108 42.5208 4.36108H45.3822C47.324 4.36108 49.0391 4.90361 50.5276 5.98867C52.0246 7.07373 52.7731 8.55879 52.7731 10.4438C52.7731 10.9864 52.6234 11.3772 52.324 11.6163C52.0246 11.8461 51.7337 11.9611 51.4514 11.9611H49.9245C49.1375 11.9611 48.5259 11.4553 48.0896 10.4438C47.4566 8.99097 46.4044 8.26453 44.9331 8.26453H42.6491C40.7757 8.26453 39.5054 8.69672 38.8382 9.56108C38.171 10.4255 37.8373 12.0255 37.8373 14.3611C37.8373 16.6967 38.171 18.3013 38.8382 19.1749C39.5054 20.0392 40.7757 20.4714 42.6491 20.4714H45.2025C46.6739 20.4714 47.7218 19.745 48.3462 18.2921C48.7825 17.2714 49.3984 16.7611 50.194 16.7611H51.7209C52.1229 16.7611 52.4394 16.922 52.6704 17.2438C52.9099 17.5657 53.0297 17.9151 53.0297 18.2921C53.0297 20.1772 52.2855 21.6622 50.797 22.7473C49.3086 23.8232 47.5935 24.3611 45.6516 24.3611H42.5208C39.3472 24.3611 36.9648 23.5473 35.3737 21.9197Z" fill="#031343"/>
<path d="M74.5736 23.6438C74.5736 24.0484 74.3512 24.2507 73.9063 24.2507H70.9679C70.6343 24.2507 70.2751 24.1266 69.8901 23.8783C69.5052 23.6209 69.2058 23.3128 68.9919 22.9542L66.7336 19.1059C66.1947 18.168 65.6515 17.4645 65.104 16.9956C64.5565 16.5174 63.8979 16.2783 63.128 16.2783H60.3692V22.9818C60.3692 23.3404 60.2495 23.6438 60.01 23.8921C59.779 24.1312 59.4967 24.2507 59.1631 24.2507H56.7508C56.4172 24.2507 56.1306 24.122 55.8911 23.8645C55.6516 23.5979 55.5318 23.2852 55.5318 22.9266V5.78177C55.5318 5.42315 55.6516 5.11051 55.8911 4.84384C56.1306 4.57718 56.4172 4.44384 56.7508 4.44384H59.1631C59.4967 4.44384 59.779 4.57718 60.01 4.84384C60.2495 5.11051 60.3692 5.42315 60.3692 5.78177V12.3887H63.128C63.8808 12.3887 64.5394 12.168 65.104 11.7266C65.6771 11.2852 66.2203 10.5726 66.7336 9.58867L68.7225 5.78177C69.1758 4.89902 69.7917 4.45304 70.5702 4.44384H73.5342C73.9448 4.44384 74.1501 4.63695 74.1501 5.02315C74.1501 5.23465 74.0774 5.48752 73.932 5.78177L71.1476 11.2025C70.7455 11.9933 70.2922 12.6461 69.7875 13.1611C69.2913 13.676 68.6412 14.0392 67.8371 14.2507C68.4017 14.3795 68.9791 14.7611 69.5693 15.3956C70.1681 16.03 70.6942 16.7197 71.1476 17.4645L74.3554 22.9542C74.5009 23.2209 74.5736 23.4507 74.5736 23.6438Z" fill="#031343"/>
<path d="M74.9072 23.0921L78.1664 9.85074C79.0389 6.27373 81.8746 4.48062 86.6736 4.47143H93.0892C93.3886 4.47143 93.641 4.60476 93.8463 4.87143C94.0602 5.1381 94.1671 5.44154 94.1671 5.78177V22.9542C94.1671 23.3128 94.0516 23.6209 93.8206 23.8783C93.5982 24.1266 93.3202 24.2507 92.9866 24.2507H90.5358C90.2022 24.2507 89.9156 24.1266 89.6761 23.8783C89.4451 23.6209 89.3297 23.3128 89.3297 22.9542V8.37488H86.1988C85.3776 8.37488 84.659 8.62775 84.0431 9.1335C83.4358 9.63005 83.0252 10.3013 82.8113 11.1473L79.8729 22.9542C79.7874 23.3312 79.5949 23.6438 79.2955 23.8921C78.9961 24.1312 78.6796 24.2507 78.346 24.2507H75.7412C75.4418 24.2507 75.2194 24.1496 75.074 23.9473C74.9371 23.745 74.8687 23.5749 74.8687 23.4369C74.8772 23.299 74.8901 23.1841 74.9072 23.0921Z" fill="#031343"/>
<path d="M96.3356 22.9818L99.5563 9.85074C100.429 6.27373 103.269 4.48062 108.076 4.47143H114.992C115.309 4.47143 115.57 4.60016 115.775 4.85764C115.989 5.11511 116.096 5.41396 116.096 5.75419V22.9818C116.096 23.3404 115.976 23.6438 115.737 23.8921C115.497 24.1312 115.211 24.2507 114.877 24.2507H112.465C112.114 24.2507 111.823 24.1312 111.592 23.8921C111.37 23.6438 111.258 23.3312 111.258 22.9542V19.4783H102.135L101.276 22.9542C101.19 23.3312 100.998 23.6438 100.698 23.8921C100.399 24.1312 100.082 24.2507 99.7487 24.2507H97.2209C96.8873 24.2507 96.6478 24.1496 96.5024 23.9473C96.357 23.7358 96.2843 23.5519 96.2843 23.3956C96.2928 23.2392 96.3099 23.1013 96.3356 22.9818ZM103.085 15.5749H111.258V8.37488H107.602C106.78 8.37488 106.062 8.62775 105.446 9.1335C104.839 9.63005 104.428 10.3013 104.214 11.1473L103.085 15.5749Z" fill="#031343"/>
<path d="M117.931 22.9542V21.63C117.931 21.2714 118.046 20.968 118.277 20.7197C118.517 20.4714 118.803 20.3473 119.137 20.3473H120.138L122.524 9.90591C123.354 6.28292 126.134 4.47143 130.865 4.47143H137.794C138.127 4.47143 138.41 4.59557 138.641 4.84384C138.88 5.09212 139 5.39557 139 5.75419V22.9818C139 23.3404 138.88 23.6438 138.641 23.8921C138.41 24.1312 138.127 24.2507 137.794 24.2507H119.137C118.803 24.2507 118.517 24.1266 118.277 23.8783C118.046 23.6209 117.931 23.3128 117.931 22.9542ZM125.078 20.3473H134.175V8.37488H130.339C129.526 8.37488 128.855 8.61396 128.324 9.09212C127.794 9.57028 127.43 10.2369 127.234 11.0921L125.078 20.3473Z" fill="#031343"/>
<path d="M145.154 9.28522C145.051 9.1289 145 8.94499 145 8.7335C145 8.522 145.141 8.28752 145.423 8.03005L148.554 5.1335C149.007 4.70131 149.636 4.48062 150.44 4.47143H152.326C152.677 4.47143 152.972 4.60016 153.211 4.85764C153.451 5.11511 153.571 5.42315 153.571 5.78177V22.9542C153.571 23.3128 153.447 23.6209 153.199 23.8783C152.95 24.1266 152.66 24.2507 152.326 24.2507H149.94C149.606 24.2507 149.319 24.1312 149.08 23.8921C148.849 23.6438 148.734 23.3404 148.734 22.9818V9.64384L147.258 10.8025C147.087 10.9312 146.89 10.9726 146.668 10.9266C146.445 10.8806 146.266 10.7749 146.129 10.6094L145.154 9.28522Z" fill="#031343"/>
<path d="M155.675 19.4783V17.8369C155.675 17.0278 155.94 16.3105 156.47 15.6852L164.951 5.3266C165.422 4.76568 166.089 4.48062 166.953 4.47143H170.969C171.319 4.47143 171.614 4.60016 171.854 4.85764C172.093 5.11511 172.213 5.42315 172.213 5.78177V16.8714H173.624C173.975 16.8714 174.27 17.0002 174.51 17.2576C174.749 17.5151 174.869 17.8232 174.869 18.1818V19.4783C174.869 19.8369 174.745 20.145 174.497 20.4025C174.249 20.6507 173.958 20.7749 173.624 20.7749H172.213V22.9542C172.213 23.3128 172.089 23.6209 171.841 23.8783C171.593 24.1266 171.302 24.2507 170.969 24.2507H168.582C168.249 24.2507 167.962 24.1312 167.723 23.8921C167.492 23.6438 167.376 23.3404 167.376 22.9818V20.7749H156.919C156.586 20.7749 156.295 20.6507 156.047 20.4025C155.799 20.145 155.675 19.8369 155.675 19.4783ZM160.833 16.8714H167.376V8.88522L160.833 16.8714Z" fill="#031343"/>
<path d="M175.652 14.3611C175.652 12.5128 175.887 10.9266 176.357 9.60246C176.836 8.27833 177.512 7.24384 178.385 6.49901C180.044 5.07373 182.208 4.36108 184.877 4.36108H185.775C188.444 4.36108 190.608 5.07373 192.267 6.49901C194.089 8.06223 195 10.6829 195 14.3611C195 18.0576 194.089 20.6829 192.267 22.2369C190.608 23.653 188.444 24.3611 185.775 24.3611H184.877C182.208 24.3611 180.044 23.653 178.385 22.2369C176.563 20.6829 175.652 18.0576 175.652 14.3611ZM185.326 8.26453C182.101 8.26453 180.489 10.3013 180.489 14.3749C180.489 18.4392 182.101 20.4714 185.326 20.4714C188.551 20.4714 190.163 18.4392 190.163 14.3749C190.163 10.3013 188.551 8.26453 185.326 8.26453Z" fill="#031343"/>
<path d="M187.87 40.3758L190.567 32.7968H192.302L195 40.3758H193.749L191.265 33.46H191.576L189.121 40.3758H187.87ZM189.27 38.6652V37.6336H193.605V38.6652H189.27Z" fill="#031343"/>
<path d="M183.715 40.5337C182.885 40.5337 182.178 40.3687 181.594 40.0389C181.01 39.7056 180.562 39.2424 180.251 38.6494C179.943 38.0565 179.79 37.3687 179.79 36.5863C179.79 35.8038 179.943 35.1161 180.251 34.5231C180.562 33.9301 181.01 33.4687 181.594 33.1389C182.178 32.8056 182.885 32.6389 183.715 32.6389C184.671 32.6389 185.463 32.86 186.089 33.3021C186.72 33.7442 187.158 34.3389 187.403 35.0863L186.182 35.3863C186.02 34.8565 185.732 34.4407 185.317 34.1389C184.906 33.8372 184.372 33.6863 183.715 33.6863C183.127 33.6863 182.637 33.8073 182.245 34.0494C181.853 34.2915 181.557 34.6301 181.357 35.0652C181.161 35.5003 181.063 36.0073 181.063 36.5863C181.06 37.1652 181.156 37.6723 181.352 38.1073C181.551 38.5424 181.847 38.881 182.239 39.1231C182.635 39.3652 183.127 39.4863 183.715 39.4863C184.372 39.4863 184.906 39.3354 185.317 39.0337C185.732 38.7284 186.02 38.3126 186.182 37.7863L187.403 38.0863C187.158 38.8337 186.72 39.4284 186.089 39.8705C185.463 40.3126 184.671 40.5337 183.715 40.5337Z" fill="#031343"/>
<path d="M173.913 40.3758V32.7968H179.216V33.8336H175.118V35.96H178.524V36.9968H175.118V39.3389H179.216V40.3758H173.913Z" fill="#031343"/>
<path d="M165.729 40.3758V32.7968H166.934V36.0652H171.083V32.7968H172.294V40.3758H171.083V37.1021H166.934V40.3758H165.729Z" fill="#031343"/>
<path d="M161.287 40.5337C160.711 40.5337 160.209 40.4565 159.783 40.3021C159.356 40.1477 158.999 39.9477 158.711 39.7021C158.426 39.453 158.209 39.188 158.059 38.9073L159.108 38.2863C159.201 38.4933 159.339 38.688 159.523 38.8705C159.712 39.053 159.954 39.2021 160.25 39.3179C160.549 39.4301 160.912 39.4863 161.339 39.4863C161.765 39.4863 162.117 39.4284 162.394 39.3126C162.67 39.1933 162.876 39.0354 163.01 38.8389C163.149 38.6389 163.218 38.4144 163.218 38.1652C163.218 37.874 163.133 37.6494 162.964 37.4915C162.799 37.3301 162.578 37.2179 162.301 37.1547C162.025 37.088 161.725 37.0494 161.402 37.0389C161.133 37.0319 160.939 37.0266 160.82 37.0231C160.701 37.0161 160.62 37.0126 160.578 37.0126C160.54 37.0126 160.503 37.0126 160.469 37.0126V35.9705C160.511 35.9705 160.584 35.9705 160.688 35.9705C160.795 35.9705 160.907 35.9705 161.022 35.9705C161.137 35.967 161.231 35.9635 161.304 35.96C161.781 35.9389 162.165 35.8319 162.457 35.6389C162.753 35.4459 162.901 35.1723 162.901 34.8179C162.901 34.4635 162.757 34.1845 162.469 33.981C162.184 33.7775 161.81 33.6758 161.345 33.6758C160.903 33.6758 160.522 33.7687 160.204 33.9547C159.885 34.1372 159.639 34.3635 159.466 34.6337L158.578 33.8705C158.855 33.5196 159.233 33.2266 159.714 32.9915C160.194 32.7565 160.749 32.6389 161.379 32.6389C161.737 32.6389 162.082 32.6828 162.417 32.7705C162.751 32.8547 163.051 32.9845 163.316 33.16C163.581 33.3354 163.79 33.5582 163.944 33.8284C164.102 34.0951 164.18 34.4126 164.18 34.781C164.18 35.1494 164.098 35.4828 163.933 35.781C163.771 36.0793 163.554 36.3161 163.281 36.4915C163.662 36.6214 163.96 36.8266 164.175 37.1073C164.39 37.3845 164.497 37.7389 164.497 38.1705C164.497 38.6547 164.357 39.074 164.077 39.4284C163.8 39.7793 163.42 40.0512 162.936 40.2442C162.455 40.4372 161.906 40.5337 161.287 40.5337Z" fill="#031343"/>
<path d="M156.837 40.3758H155.615V34.7389L151.529 40.3758H150.307V32.7968H151.529V38.4284L155.615 32.7968H156.837V40.3758Z" fill="#031343"/>
<path d="M143.08 40.3758V32.7968H148.492V33.8336H144.284V35.66H146.434C146.511 35.66 146.609 35.6635 146.728 35.6705C146.851 35.674 146.966 35.6828 147.074 35.6968C147.523 35.7459 147.902 35.8793 148.209 36.0968C148.521 36.3144 148.755 36.5898 148.912 36.9231C149.074 37.2565 149.155 37.6214 149.155 38.0179C149.155 38.4144 149.076 38.7793 148.918 39.1126C148.761 39.4459 148.526 39.7214 148.215 39.9389C147.908 40.1565 147.527 40.2898 147.074 40.3389C146.966 40.3529 146.853 40.3635 146.734 40.3705C146.615 40.374 146.515 40.3758 146.434 40.3758H143.08ZM144.284 39.3389H146.388C146.465 39.3389 146.549 39.3354 146.642 39.3284C146.738 39.3214 146.828 39.3108 146.912 39.2968C147.285 39.2266 147.546 39.0652 147.696 38.8126C147.85 38.56 147.927 38.2951 147.927 38.0179C147.927 37.7372 147.85 37.4722 147.696 37.2231C147.546 36.9705 147.285 36.8091 146.912 36.7389C146.828 36.7214 146.738 36.7108 146.642 36.7073C146.549 36.7003 146.465 36.6968 146.388 36.6968H144.284V39.3389Z" fill="#031343"/>
<path d="M139.159 40.3758H137.949V37.6547H135.603L135.113 37.6021C134.437 37.4933 133.93 37.2214 133.591 36.7863C133.253 36.3477 133.084 35.8266 133.084 35.2231C133.084 34.8161 133.161 34.4442 133.315 34.1073C133.468 33.7705 133.699 33.4915 134.006 33.2705C134.314 33.0494 134.7 32.9056 135.165 32.8389C135.272 32.8214 135.386 32.8108 135.505 32.8073C135.624 32.8003 135.724 32.7968 135.805 32.7968H139.159V40.3758ZM134.306 40.3758H132.929L134.727 37.0073L135.943 37.2915L134.306 40.3758ZM137.949 36.6126V33.8336H135.851C135.774 33.8336 135.687 33.8372 135.591 33.8442C135.499 33.8512 135.411 33.8652 135.326 33.8863C135.08 33.9389 134.882 34.0372 134.733 34.181C134.583 34.3214 134.473 34.4845 134.404 34.6705C134.339 34.8529 134.306 35.0372 134.306 35.2231C134.306 35.4091 134.339 35.5951 134.404 35.781C134.473 35.967 134.583 36.1319 134.733 36.2758C134.882 36.4161 135.08 36.5126 135.326 36.5652C135.411 36.5828 135.499 36.5951 135.591 36.6021C135.687 36.6091 135.774 36.6126 135.851 36.6126H137.949Z" fill="#031343"/>
<path d="M124.458 40.3758V39.4337C124.654 39.4512 124.815 39.4424 124.942 39.4073C125.073 39.3687 125.182 39.2951 125.27 39.1863C125.359 39.074 125.434 38.9126 125.495 38.7021C125.561 38.4915 125.624 38.2196 125.685 37.8863C125.77 37.4617 125.841 37.0249 125.899 36.5758C125.956 36.1266 126.004 35.681 126.043 35.2389C126.085 34.7933 126.12 34.3635 126.147 33.9494C126.173 33.5354 126.195 33.1512 126.21 32.7968H131.657V40.3758H130.452V33.8336H127.34C127.32 34.1143 127.297 34.4284 127.27 34.7758C127.244 35.1231 127.211 35.4915 127.173 35.881C127.134 36.2705 127.086 36.6722 127.028 37.0863C126.975 37.5003 126.905 37.9161 126.821 38.3336C126.752 38.6915 126.667 39.0144 126.567 39.3021C126.467 39.5898 126.333 39.8301 126.164 40.0231C125.995 40.2126 125.774 40.3389 125.501 40.4021C125.228 40.4687 124.88 40.46 124.458 40.3758Z" fill="#031343"/>
<path d="M116.002 41.6389V39.3389C116.286 39.3389 116.52 39.274 116.705 39.1442C116.889 39.0108 117.035 38.8301 117.143 38.6021C117.254 38.3705 117.339 38.1073 117.396 37.8126C117.458 37.5179 117.504 37.2073 117.535 36.881C117.581 36.4389 117.619 36.0073 117.65 35.5863C117.685 35.1617 117.715 34.7231 117.742 34.2705C117.773 33.8179 117.806 33.3249 117.84 32.7915L123.154 32.7968V39.3389H123.771V41.6389H122.561V40.3758H117.206V41.6389H116.002ZM117.979 39.3389H121.95V33.8336L118.953 33.8284C118.926 34.2144 118.903 34.581 118.884 34.9284C118.864 35.2758 118.839 35.6266 118.809 35.981C118.782 36.3319 118.747 36.7091 118.705 37.1126C118.663 37.4986 118.618 37.8266 118.572 38.0968C118.526 38.3635 118.457 38.5951 118.365 38.7915C118.276 38.988 118.148 39.1705 117.979 39.3389Z" fill="#031343"/>
<path d="M107.428 40.3758V32.7968H112.73V33.8336H108.632V35.96H112.039V36.9968H108.632V39.3389H112.73V40.3758H107.428Z" fill="#031343"/>
<path d="M105.819 40.3758H104.597V34.7389L100.511 40.3758H99.2888V32.7968H100.511V38.4284L104.597 32.7968H105.819V40.3758Z" fill="#031343"/>
<path d="M91.1049 40.3758V32.7968H92.3095V36.0652H96.4594V32.7968H97.6697V40.3758H96.4594V37.1021H92.3095V40.3758H91.1049Z" fill="#031343"/>
<path d="M82.9411 40.3758L85.6385 32.7968H87.3734L90.0708 40.3758H88.8201L86.3359 33.46H86.6471L84.1918 40.3758H82.9411ZM84.3417 38.6652V37.6336H88.676V38.6652H84.3417Z" fill="#031343"/>
<path d="M76.3128 40.3758V32.7968H79.5751C80.1015 32.7968 80.5434 32.8951 80.9007 33.0915C81.2581 33.288 81.5271 33.5424 81.7077 33.8547C81.8883 34.1635 81.9785 34.4898 81.9785 34.8336C81.9785 35.2512 81.8652 35.6091 81.6385 35.9073C81.4156 36.2056 81.114 36.4091 80.7336 36.5179L80.7221 36.26C81.2523 36.3793 81.6596 36.6126 81.944 36.96C82.2283 37.3038 82.3705 37.7056 82.3705 38.1652C82.3705 38.6108 82.2725 38.9986 82.0765 39.3284C81.8844 39.6582 81.602 39.9161 81.2293 40.1021C80.8604 40.2845 80.4127 40.3758 79.8863 40.3758H76.3128ZM77.5347 39.3284H79.7019C79.9747 39.3284 80.2187 39.281 80.4339 39.1863C80.6529 39.0915 80.8239 38.9565 80.9468 38.781C81.0736 38.6021 81.137 38.3898 81.137 38.1442C81.137 37.9161 81.0813 37.7108 80.9699 37.5284C80.8623 37.3424 80.7048 37.1968 80.4973 37.0915C80.2936 36.9828 80.0535 36.9284 79.7768 36.9284H77.5347V39.3284ZM77.5347 35.8915H79.5578C79.7807 35.8915 79.9805 35.8512 80.1572 35.7705C80.3378 35.6863 80.48 35.567 80.5837 35.4126C80.6913 35.2547 80.7451 35.0652 80.7451 34.8442C80.7451 34.5494 80.6375 34.3073 80.4223 34.1179C80.2072 33.9284 79.919 33.8336 79.5578 33.8336H77.5347V35.8915Z" fill="#031343"/>
<path d="M71.2439 40.5337C70.4139 40.5337 69.7069 40.3687 69.1229 40.0389C68.5388 39.7056 68.0912 39.2424 67.7799 38.6494C67.4725 38.0565 67.3188 37.3687 67.3188 36.5863C67.3188 35.8038 67.4725 35.1161 67.7799 34.5231C68.0912 33.9301 68.5388 33.4687 69.1229 33.1389C69.7069 32.8056 70.4139 32.6389 71.2439 32.6389C72.07 32.6389 72.7751 32.8056 73.3592 33.1389C73.9471 33.4687 74.3947 33.9301 74.7021 34.5231C75.0095 35.1161 75.1632 35.8038 75.1632 36.5863C75.1632 37.3687 75.0095 38.0565 74.7021 38.6494C74.3947 39.2424 73.9471 39.7056 73.3592 40.0389C72.7751 40.3687 72.07 40.5337 71.2439 40.5337ZM71.2439 39.4863C71.8318 39.4933 72.3198 39.3758 72.7079 39.1337C73.0998 38.888 73.3938 38.5477 73.5897 38.1126C73.7857 37.674 73.8837 37.1652 73.8837 36.5863C73.8837 36.0073 73.7857 35.5021 73.5897 35.0705C73.3938 34.6354 73.0998 34.2968 72.7079 34.0547C72.3198 33.8126 71.8318 33.6898 71.2439 33.6863C70.656 33.6793 70.1661 33.7968 69.7742 34.0389C69.3861 34.281 69.094 34.6214 68.8981 35.06C68.7021 35.4986 68.6022 36.0073 68.5984 36.5863C68.5945 37.1652 68.6906 37.6723 68.8866 38.1073C69.0825 38.5389 69.3765 38.8758 69.7684 39.1179C70.1642 39.36 70.656 39.4828 71.2439 39.4863Z" fill="#031343"/>
<path d="M58.7472 41.6389V39.3389C59.0316 39.3389 59.266 39.274 59.4504 39.1442C59.6348 39.0108 59.7809 38.8301 59.8884 38.6021C59.9999 38.3705 60.0844 38.1073 60.1421 37.8126C60.2035 37.5179 60.2496 37.2073 60.2804 36.881C60.3265 36.4389 60.3649 36.0073 60.3956 35.5863C60.4302 35.1617 60.461 34.7231 60.4879 34.2705C60.5186 33.8179 60.5513 33.3249 60.5859 32.7915L65.9 32.7968V39.3389H66.5167V41.6389H65.3063V40.3758H59.9519V41.6389H58.7472ZM60.7242 39.3389H64.6954V33.8336L61.6983 33.8284C61.6714 34.2144 61.6483 34.581 61.6291 34.9284C61.6099 35.2758 61.5849 35.6266 61.5542 35.981C61.5273 36.3319 61.4927 36.7091 61.4504 37.1126C61.4081 37.4986 61.364 37.8266 61.3178 38.0968C61.2717 38.3635 61.2026 38.5951 61.1104 38.7915C61.022 38.988 60.8932 39.1705 60.7242 39.3389Z" fill="#031343"/>
<path d="M53.8882 40.3758L54.9372 38.4126L52.0438 32.7968H53.3983L55.5655 37.2442L57.7903 32.7968H59.0756L55.1908 40.3758H53.8882Z" fill="#031343"/>
<path d="M45.4681 40.3758V32.7968H48.8225C48.9032 32.7968 49.0031 32.8003 49.1222 32.8073C49.2414 32.8108 49.3547 32.8214 49.4623 32.8389C49.9234 32.9056 50.3076 33.0494 50.615 33.2705C50.9263 33.4915 51.1588 33.7705 51.3125 34.1073C51.4662 34.4442 51.543 34.8161 51.543 35.2231C51.543 35.6336 51.4662 36.0073 51.3125 36.3442C51.1588 36.681 50.9263 36.96 50.615 37.181C50.3076 37.4021 49.9234 37.5459 49.4623 37.6126C49.3547 37.6266 49.2394 37.6372 49.1165 37.6442C48.9974 37.6512 48.8994 37.6547 48.8225 37.6547H46.6727V40.3758H45.4681ZM46.6727 36.6126H48.7764C48.8533 36.6126 48.9378 36.6091 49.03 36.6021C49.1261 36.5951 49.2164 36.5828 49.3009 36.5652C49.5468 36.5126 49.7447 36.4161 49.8946 36.2758C50.0444 36.1319 50.152 35.967 50.2173 35.781C50.2827 35.5951 50.3153 35.4091 50.3153 35.2231C50.3153 35.0372 50.2827 34.8529 50.2173 34.6705C50.152 34.4845 50.0444 34.3214 49.8946 34.181C49.7447 34.0372 49.5468 33.9389 49.3009 33.8863C49.2164 33.8652 49.1261 33.8512 49.03 33.8442C48.9378 33.8372 48.8533 33.8336 48.7764 33.8336H46.6727V36.6126Z" fill="#031343"/>
<path d="M40.3991 40.5337C39.5692 40.5337 38.8622 40.3687 38.2781 40.0389C37.694 39.7056 37.2464 39.2424 36.9352 38.6494C36.6278 38.0565 36.4741 37.3687 36.4741 36.5863C36.4741 35.8038 36.6278 35.1161 36.9352 34.5231C37.2464 33.9301 37.694 33.4687 38.2781 33.1389C38.8622 32.8056 39.5692 32.6389 40.3991 32.6389C41.2253 32.6389 41.9304 32.8056 42.5144 33.1389C43.1023 33.4687 43.55 33.9301 43.8574 34.5231C44.1648 35.1161 44.3185 35.8038 44.3185 36.5863C44.3185 37.3687 44.1648 38.0565 43.8574 38.6494C43.55 39.2424 43.1023 39.7056 42.5144 40.0389C41.9304 40.3687 41.2253 40.5337 40.3991 40.5337ZM40.3991 39.4863C40.987 39.4933 41.475 39.3758 41.8631 39.1337C42.2551 38.888 42.549 38.5477 42.745 38.1126C42.9409 37.674 43.0389 37.1652 43.0389 36.5863C43.0389 36.0073 42.9409 35.5021 42.745 35.0705C42.549 34.6354 42.2551 34.2968 41.8631 34.0547C41.475 33.8126 40.987 33.6898 40.3991 33.6863C39.8112 33.6793 39.3213 33.7968 38.9294 34.0389C38.5413 34.281 38.2493 34.6214 38.0533 35.06C37.8573 35.4986 37.7574 36.0073 37.7536 36.5863C37.7498 37.1652 37.8458 37.6723 38.0418 38.1073C38.2377 38.5389 38.5317 38.8758 38.9236 39.1179C39.3194 39.36 39.8112 39.4828 40.3991 39.4863Z" fill="#031343"/>
<path d="M29.7078 40.3758V32.7968H35.12V33.8336H30.9124V35.66H33.0623C33.1392 35.66 33.2371 35.6635 33.3563 35.6705C33.4792 35.674 33.5945 35.6828 33.7021 35.6968C34.1517 35.7459 34.5301 35.8793 34.8375 36.0968C35.1488 36.3144 35.3832 36.5898 35.5407 36.9231C35.7021 37.2565 35.7828 37.6214 35.7828 38.0179C35.7828 38.4144 35.704 38.7793 35.5465 39.1126C35.3889 39.4459 35.1545 39.7214 34.8433 39.9389C34.5359 40.1565 34.1555 40.2898 33.7021 40.3389C33.5945 40.3529 33.4811 40.3635 33.362 40.3705C33.2429 40.374 33.143 40.3758 33.0623 40.3758H29.7078ZM30.9124 39.3389H33.0162C33.0931 39.3389 33.1776 39.3354 33.2698 39.3284C33.3659 39.3214 33.4562 39.3108 33.5407 39.2968C33.9134 39.2266 34.1747 39.0652 34.3246 38.8126C34.4783 38.56 34.5551 38.2951 34.5551 38.0179C34.5551 37.7372 34.4783 37.4722 34.3246 37.2231C34.1747 36.9705 33.9134 36.8091 33.5407 36.7389C33.4562 36.7214 33.3659 36.7108 33.2698 36.7073C33.1776 36.7003 33.0931 36.6968 33.0162 36.6968H30.9124V39.3389Z" fill="#031343"/>
<path d="M24.6389 40.5337C23.809 40.5337 23.1019 40.3687 22.5179 40.0389C21.9338 39.7056 21.4862 39.2424 21.1749 38.6494C20.8675 38.0565 20.7138 37.3687 20.7138 36.5863C20.7138 35.8038 20.8675 35.1161 21.1749 34.5231C21.4862 33.9301 21.9338 33.4687 22.5179 33.1389C23.1019 32.8056 23.809 32.6389 24.6389 32.6389C25.4651 32.6389 26.1702 32.8056 26.7542 33.1389C27.3421 33.4687 27.7898 33.9301 28.0972 34.5231C28.4046 35.1161 28.5583 35.8038 28.5583 36.5863C28.5583 37.3687 28.4046 38.0565 28.0972 38.6494C27.7898 39.2424 27.3421 39.7056 26.7542 40.0389C26.1702 40.3687 25.4651 40.5337 24.6389 40.5337ZM24.6389 39.4863C25.2268 39.4933 25.7148 39.3758 26.1029 39.1337C26.4948 38.888 26.7888 38.5477 26.9848 38.1126C27.1807 37.674 27.2787 37.1652 27.2787 36.5863C27.2787 36.0073 27.1807 35.5021 26.9848 35.0705C26.7888 34.6354 26.4948 34.2968 26.1029 34.0547C25.7148 33.8126 25.2268 33.6898 24.6389 33.6863C24.051 33.6793 23.5611 33.7968 23.1692 34.0389C22.7811 34.281 22.4891 34.6214 22.2931 35.06C22.0971 35.4986 21.9972 36.0073 21.9934 36.5863C21.9895 37.1652 22.0856 37.6723 22.2816 38.1073C22.4775 38.5389 22.7715 38.8758 23.1634 39.1179C23.5592 39.36 24.051 39.4828 24.6389 39.4863Z" fill="#031343"/>
<path d="M13.2383 40.3758L14.2873 38.4126L11.3939 32.7968H12.7484L14.9155 37.2442L17.1403 32.7968H18.4256L14.5409 40.3758H13.2383Z" fill="#031343"/>
<path d="M9.32515 32.7968H10.5413L8.32803 40.3758H7.11188L9.32515 32.7968Z" fill="#031343"/>
<path d="M0 40.3758V32.7968H5.41212V33.8336H1.20461V35.66H3.35448C3.43133 35.66 3.52931 35.6635 3.64843 35.6705C3.77139 35.674 3.88666 35.6828 3.99425 35.6968C4.44382 35.7459 4.8223 35.8793 5.1297 36.0968C5.44094 36.3144 5.67533 36.5898 5.83287 36.9231C5.99425 37.2565 6.07495 37.6214 6.07495 38.0179C6.07495 38.4144 5.99618 38.7793 5.83863 39.1126C5.68109 39.4459 5.4467 39.7214 5.13546 39.9389C4.82806 40.1565 4.44766 40.2898 3.99425 40.3389C3.88666 40.3529 3.77331 40.3635 3.65419 40.3705C3.53507 40.374 3.43517 40.3758 3.35448 40.3758H0ZM1.20461 39.3389H3.30837C3.38522 39.3389 3.46975 39.3354 3.56197 39.3284C3.65803 39.3214 3.74833 39.3108 3.83286 39.2968C4.20558 39.2266 4.46687 39.0652 4.61673 38.8126C4.77043 38.56 4.84728 38.2951 4.84728 38.0179C4.84728 37.7372 4.77043 37.4722 4.61673 37.2231C4.46687 36.9705 4.20558 36.8091 3.83286 36.7389C3.74833 36.7214 3.65803 36.7108 3.56197 36.7073C3.46975 36.7003 3.38522 36.6968 3.30837 36.6968H1.20461V39.3389Z" fill="#031343"/>
<path d="M9.72733 5.36117L20 10.8612M25.5 8.36117L14.9579 3.09008C14.6704 2.94634 14.3314 2.94954 14.0466 3.09867L4.00006 8.36117L14.5001 14.3612" stroke="#031343" stroke-width="1.5" stroke-linecap="round" stroke-linejoin="round"/>
<path d="M14.4999 26.3612V14.9548V26.3612Z" fill="#D9D9D9" stroke="#F53535" stroke-width="1.5" stroke-linecap="round" stroke-linejoin="round"/>
<path d="M14.5 26.361V14.361Z" stroke="#258FFB" stroke-width="1.5" stroke-linecap="round" stroke-linejoin="round"/>
</svg>
