<svg width="195" height="42" viewBox="0 0 195 42" fill="none" xmlns="http://www.w3.org/2000/svg">
<path d="M35.3738 21.9199C33.7913 20.2924 33 17.7774 33 14.3751C33 10.9636 33.7913 8.44409 35.3738 6.8165C36.9649 5.17972 39.3473 4.36133 42.5209 4.36133H45.3823C47.3241 4.36133 49.0392 4.90386 50.5277 5.98891C52.0247 7.07397 52.7732 8.55903 52.7732 10.4441C52.7732 10.9866 52.6235 11.3774 52.3241 11.6165C52.0247 11.8464 51.7338 11.9613 51.4515 11.9613H49.9246C49.1376 11.9613 48.526 11.4556 48.0897 10.4441C47.4567 8.99121 46.4045 8.26478 44.9332 8.26478H42.6492C40.7758 8.26478 39.5055 8.69696 38.8383 9.56133C38.171 10.4257 37.8374 12.0257 37.8374 14.3613C37.8374 16.697 38.171 18.3016 38.8383 19.1751C39.5055 20.0395 40.7758 20.4717 42.6492 20.4717H45.2026C46.674 20.4717 47.7219 19.7452 48.3463 18.2924C48.7826 17.2717 49.3985 16.7613 50.194 16.7613H51.721C52.123 16.7613 52.4395 16.9222 52.6705 17.2441C52.91 17.5659 53.0298 17.9154 53.0298 18.2924C53.0298 20.1774 52.2856 21.6625 50.7971 22.7475C49.3087 23.8234 47.5936 24.3613 45.6517 24.3613H42.5209C39.3473 24.3613 36.9649 23.5475 35.3738 21.9199Z" fill="#031343"/>
<path d="M74.5737 23.6441C74.5737 24.0487 74.3512 24.251 73.9064 24.251H70.968C70.6344 24.251 70.2752 24.1268 69.8902 23.8786C69.5053 23.6211 69.2059 23.3131 68.992 22.9544L66.7337 19.1062C66.1948 18.1682 65.6516 17.4648 65.1041 16.9958C64.5566 16.5176 63.898 16.2786 63.1281 16.2786H60.3693V22.982C60.3693 23.3406 60.2496 23.6441 60.01 23.8924C59.7791 24.1314 59.4968 24.251 59.1632 24.251H56.7509C56.4173 24.251 56.1307 24.1222 55.8912 23.8648C55.6517 23.5981 55.5319 23.2855 55.5319 22.9268V5.78202C55.5319 5.4234 55.6517 5.11075 55.8912 4.84409C56.1307 4.57742 56.4173 4.44409 56.7509 4.44409H59.1632C59.4968 4.44409 59.7791 4.57742 60.01 4.84409C60.2496 5.11075 60.3693 5.4234 60.3693 5.78202V12.3889H63.1281C63.8808 12.3889 64.5395 12.1682 65.1041 11.7268C65.6772 11.2855 66.2204 10.5728 66.7337 9.58891L68.7226 5.78202C69.1759 4.89926 69.7918 4.45328 70.5703 4.44409H73.5343C73.9449 4.44409 74.1502 4.63719 74.1502 5.0234C74.1502 5.23489 74.0775 5.48776 73.9321 5.78202L71.1477 11.2027C70.7456 11.9935 70.2923 12.6464 69.7876 13.1613C69.2914 13.6763 68.6413 14.0395 67.8372 14.251C68.4018 14.3797 68.9792 14.7613 69.5694 15.3958C70.1682 16.0303 70.6943 16.7199 71.1477 17.4648L74.3555 22.9544C74.5009 23.2211 74.5737 23.451 74.5737 23.6441Z" fill="#031343"/>
<path d="M74.9073 23.0924L78.1664 9.85098C79.039 6.27397 81.8747 4.48087 86.6736 4.47167H93.0893C93.3887 4.47167 93.6411 4.60501 93.8464 4.87167C94.0602 5.13834 94.1672 5.44179 94.1672 5.78202V22.9544C94.1672 23.3131 94.0517 23.6211 93.8207 23.8786C93.5983 24.1268 93.3203 24.251 92.9867 24.251H90.5359C90.2023 24.251 89.9157 24.1268 89.6762 23.8786C89.4452 23.6211 89.3297 23.3131 89.3297 22.9544V8.37512H86.1989C85.3777 8.37512 84.6591 8.628 84.0432 9.13374C83.4359 9.63029 83.0253 10.3016 82.8114 11.1475L79.873 22.9544C79.7875 23.3314 79.595 23.6441 79.2956 23.8924C78.9962 24.1314 78.6797 24.251 78.3461 24.251H75.7413C75.4419 24.251 75.2195 24.1498 75.0741 23.9475C74.9372 23.7452 74.8688 23.5751 74.8688 23.4372C74.8773 23.2993 74.8902 23.1843 74.9073 23.0924Z" fill="#031343"/>
<path d="M96.3357 22.982L99.5563 9.85098C100.429 6.27397 103.269 4.48087 108.076 4.47167H114.992C115.309 4.47167 115.57 4.60041 115.775 4.85788C115.989 5.11535 116.096 5.4142 116.096 5.75443V22.982C116.096 23.3406 115.976 23.6441 115.737 23.8924C115.497 24.1314 115.211 24.251 114.877 24.251H112.465C112.114 24.251 111.823 24.1314 111.592 23.8924C111.37 23.6441 111.259 23.3314 111.259 22.9544V19.4786H102.135L101.276 22.9544C101.19 23.3314 100.998 23.6441 100.698 23.8924C100.399 24.1314 100.082 24.251 99.7488 24.251H97.221C96.8874 24.251 96.6479 24.1498 96.5025 23.9475C96.3571 23.736 96.2843 23.5521 96.2843 23.3958C96.2929 23.2395 96.31 23.1016 96.3357 22.982ZM103.085 15.5751H111.259V8.37512H107.602C106.78 8.37512 106.062 8.628 105.446 9.13374C104.839 9.63029 104.428 10.3016 104.214 11.1475L103.085 15.5751Z" fill="#031343"/>
<path d="M117.931 22.9544V21.6303C117.931 21.2717 118.046 20.9682 118.277 20.7199C118.517 20.4717 118.803 20.3475 119.137 20.3475H120.138L122.525 9.90616C123.354 6.28317 126.134 4.47167 130.865 4.47167H137.794C138.127 4.47167 138.41 4.59581 138.641 4.84409C138.88 5.09236 139 5.39581 139 5.75443V22.982C139 23.3406 138.88 23.6441 138.641 23.8924C138.41 24.1314 138.127 24.251 137.794 24.251H119.137C118.803 24.251 118.517 24.1268 118.277 23.8786C118.046 23.6211 117.931 23.3131 117.931 22.9544ZM125.078 20.3475H134.175V8.37512H130.339C129.526 8.37512 128.855 8.6142 128.324 9.09236C127.794 9.57052 127.43 10.2372 127.234 11.0924L125.078 20.3475Z" fill="#031343"/>
<path d="M145.154 9.28547C145.051 9.12914 145 8.94524 145 8.73374C145 8.52225 145.141 8.28776 145.423 8.03029L148.554 5.13374C149.007 4.70156 149.636 4.48087 150.44 4.47167H152.326C152.677 4.47167 152.972 4.60041 153.211 4.85788C153.451 5.11535 153.571 5.4234 153.571 5.78202V22.9544C153.571 23.3131 153.447 23.6211 153.199 23.8786C152.951 24.1268 152.66 24.251 152.326 24.251H149.94C149.606 24.251 149.32 24.1314 149.08 23.8924C148.849 23.6441 148.734 23.3406 148.734 22.982V9.64409L147.258 10.8027C147.087 10.9314 146.89 10.9728 146.668 10.9268C146.446 10.8809 146.266 10.7751 146.129 10.6096L145.154 9.28547Z" fill="#031343"/>
<path d="M155.675 19.4786V17.8372C155.675 17.028 155.94 16.3108 156.47 15.6855L164.951 5.32685C165.422 4.76593 166.089 4.48087 166.953 4.47167H170.969C171.319 4.47167 171.614 4.60041 171.854 4.85788C172.093 5.11535 172.213 5.4234 172.213 5.78202V16.8717H173.625C173.975 16.8717 174.27 17.0004 174.51 17.2579C174.749 17.5154 174.869 17.8234 174.869 18.182V19.4786C174.869 19.8372 174.745 20.1452 174.497 20.4027C174.249 20.651 173.958 20.7751 173.625 20.7751H172.213V22.9544C172.213 23.3131 172.089 23.6211 171.841 23.8786C171.593 24.1268 171.302 24.251 170.969 24.251H168.582C168.249 24.251 167.962 24.1314 167.723 23.8924C167.492 23.6441 167.376 23.3406 167.376 22.982V20.7751H156.919C156.586 20.7751 156.295 20.651 156.047 20.4027C155.799 20.1452 155.675 19.8372 155.675 19.4786ZM160.833 16.8717H167.376V8.88547L160.833 16.8717Z" fill="#031343"/>
<path d="M175.652 14.3613C175.652 12.5131 175.887 10.9268 176.357 9.60271C176.836 8.27857 177.512 7.24409 178.385 6.49926C180.044 5.07397 182.208 4.36133 184.877 4.36133H185.775C188.444 4.36133 190.608 5.07397 192.267 6.49926C194.089 8.06248 195 10.6832 195 14.3613C195 18.0579 194.089 20.6832 192.267 22.2372C190.608 23.6533 188.444 24.3613 185.775 24.3613H184.877C182.208 24.3613 180.044 23.6533 178.385 22.2372C176.563 20.6832 175.652 18.0579 175.652 14.3613ZM185.326 8.26478C182.101 8.26478 180.489 10.3016 180.489 14.3751C180.489 18.4395 182.101 20.4717 185.326 20.4717C188.551 20.4717 190.163 18.4395 190.163 14.3751C190.163 10.3016 188.551 8.26478 185.326 8.26478Z" fill="#031343"/>
<path d="M187.87 40.3755L190.567 32.7966H192.302L195 40.3755H193.749L191.265 33.4597H191.576L189.121 40.3755H187.87ZM189.27 38.665V37.6334H193.605V38.665H189.27Z" fill="#031343"/>
<path d="M183.715 40.5334C182.885 40.5334 182.178 40.3685 181.594 40.0387C181.01 39.7053 180.562 39.2422 180.251 38.6492C179.943 38.0562 179.79 37.3685 179.79 36.586C179.79 35.8036 179.943 35.1159 180.251 34.5229C180.562 33.9299 181.01 33.4685 181.594 33.1387C182.178 32.8053 182.885 32.6387 183.715 32.6387C184.671 32.6387 185.463 32.8597 186.089 33.3018C186.72 33.7439 187.158 34.3387 187.403 35.086L186.182 35.386C186.02 34.8562 185.732 34.4404 185.317 34.1387C184.906 33.8369 184.372 33.686 183.715 33.686C183.127 33.686 182.637 33.8071 182.245 34.0492C181.853 34.2913 181.557 34.6299 181.357 35.065C181.161 35.5001 181.063 36.0071 181.063 36.586C181.06 37.165 181.156 37.672 181.352 38.1071C181.551 38.5422 181.847 38.8808 182.239 39.1229C182.635 39.365 183.127 39.486 183.715 39.486C184.372 39.486 184.906 39.3352 185.317 39.0334C185.732 38.7281 186.02 38.3124 186.182 37.786L187.403 38.086C187.158 38.8334 186.72 39.4281 186.089 39.8703C185.463 40.3124 184.671 40.5334 183.715 40.5334Z" fill="#031343"/>
<path d="M173.913 40.3755V32.7966H179.216V33.8334H175.118V35.9597H178.524V36.9966H175.118V39.3387H179.216V40.3755H173.913Z" fill="#031343"/>
<path d="M165.729 40.3755V32.7966H166.934V36.065H171.083V32.7966H172.294V40.3755H171.083V37.1018H166.934V40.3755H165.729Z" fill="#031343"/>
<path d="M161.287 40.5334C160.711 40.5334 160.209 40.4562 159.783 40.3018C159.356 40.1474 158.999 39.9474 158.711 39.7018C158.426 39.4527 158.209 39.1878 158.059 38.9071L159.108 38.286C159.201 38.4931 159.339 38.6878 159.523 38.8703C159.712 39.0527 159.954 39.2018 160.25 39.3176C160.549 39.4299 160.912 39.486 161.339 39.486C161.765 39.486 162.117 39.4281 162.394 39.3124C162.67 39.1931 162.876 39.0352 163.01 38.8387C163.149 38.6387 163.218 38.4141 163.218 38.165C163.218 37.8738 163.133 37.6492 162.964 37.4913C162.799 37.3299 162.578 37.2176 162.301 37.1545C162.025 37.0878 161.725 37.0492 161.402 37.0387C161.133 37.0317 160.939 37.0264 160.82 37.0229C160.701 37.0159 160.62 37.0124 160.578 37.0124C160.54 37.0124 160.503 37.0124 160.469 37.0124V35.9703C160.511 35.9703 160.584 35.9703 160.688 35.9703C160.795 35.9703 160.907 35.9703 161.022 35.9703C161.137 35.9667 161.231 35.9632 161.304 35.9597C161.781 35.9387 162.165 35.8317 162.457 35.6387C162.753 35.4457 162.901 35.172 162.901 34.8176C162.901 34.4632 162.757 34.1843 162.469 33.9808C162.184 33.7773 161.81 33.6755 161.345 33.6755C160.903 33.6755 160.522 33.7685 160.204 33.9545C159.885 34.1369 159.639 34.3632 159.466 34.6334L158.578 33.8703C158.855 33.5194 159.233 33.2264 159.714 32.9913C160.194 32.7562 160.749 32.6387 161.379 32.6387C161.737 32.6387 162.082 32.6825 162.417 32.7703C162.751 32.8545 163.051 32.9843 163.316 33.1597C163.581 33.3352 163.79 33.558 163.944 33.8281C164.102 34.0948 164.18 34.4124 164.18 34.7808C164.18 35.1492 164.098 35.4825 163.933 35.7808C163.771 36.079 163.554 36.3159 163.281 36.4913C163.662 36.6211 163.96 36.8264 164.175 37.1071C164.39 37.3843 164.497 37.7387 164.497 38.1703C164.497 38.6545 164.357 39.0738 164.077 39.4281C163.8 39.779 163.42 40.051 162.936 40.2439C162.455 40.4369 161.906 40.5334 161.287 40.5334Z" fill="#031343"/>
<path d="M156.837 40.3755H155.615V34.7387L151.529 40.3755H150.307V32.7966H151.529V38.4281L155.615 32.7966H156.837V40.3755Z" fill="#031343"/>
<path d="M143.08 40.3755V32.7966H148.492V33.8334H144.284V35.6597H146.434C146.511 35.6597 146.609 35.6632 146.728 35.6702C146.851 35.6738 146.966 35.6825 147.074 35.6966C147.523 35.7457 147.902 35.879 148.209 36.0966C148.521 36.3141 148.755 36.5895 148.912 36.9229C149.074 37.2562 149.155 37.6211 149.155 38.0176C149.155 38.4141 149.076 38.779 148.918 39.1124C148.761 39.4457 148.526 39.7211 148.215 39.9387C147.908 40.1562 147.527 40.2895 147.074 40.3387C146.966 40.3527 146.853 40.3632 146.734 40.3702C146.615 40.3738 146.515 40.3755 146.434 40.3755H143.08ZM144.284 39.3387H146.388C146.465 39.3387 146.549 39.3352 146.642 39.3281C146.738 39.3211 146.828 39.3106 146.912 39.2966C147.285 39.2264 147.546 39.065 147.696 38.8124C147.85 38.5597 147.927 38.2948 147.927 38.0176C147.927 37.7369 147.85 37.472 147.696 37.2229C147.546 36.9702 147.285 36.8088 146.912 36.7387C146.828 36.7211 146.738 36.7106 146.642 36.7071C146.549 36.7001 146.465 36.6966 146.388 36.6966H144.284V39.3387Z" fill="#031343"/>
<path d="M139.159 40.3755H137.949V37.6545H135.603L135.113 37.6018C134.437 37.4931 133.93 37.2211 133.591 36.786C133.253 36.3474 133.084 35.8264 133.084 35.2229C133.084 34.8159 133.161 34.4439 133.315 34.1071C133.468 33.7702 133.699 33.4913 134.006 33.2702C134.314 33.0492 134.7 32.9053 135.165 32.8387C135.272 32.8211 135.386 32.8106 135.505 32.8071C135.624 32.8001 135.724 32.7966 135.805 32.7966H139.159V40.3755ZM134.306 40.3755H132.929L134.727 37.0071L135.943 37.2913L134.306 40.3755ZM137.949 36.6124V33.8334H135.851C135.774 33.8334 135.687 33.8369 135.591 33.8439C135.499 33.8509 135.411 33.865 135.326 33.886C135.08 33.9387 134.882 34.0369 134.733 34.1808C134.583 34.3211 134.473 34.4843 134.404 34.6702C134.339 34.8527 134.306 35.0369 134.306 35.2229C134.306 35.4088 134.339 35.5948 134.404 35.7808C134.473 35.9667 134.583 36.1317 134.733 36.2755C134.882 36.4159 135.08 36.5124 135.326 36.565C135.411 36.5825 135.499 36.5948 135.591 36.6018C135.687 36.6088 135.774 36.6124 135.851 36.6124H137.949Z" fill="#031343"/>
<path d="M124.458 40.3755V39.4334C124.654 39.451 124.815 39.4422 124.942 39.4071C125.073 39.3685 125.182 39.2948 125.27 39.186C125.359 39.0738 125.434 38.9124 125.495 38.7018C125.561 38.4913 125.624 38.2194 125.685 37.886C125.77 37.4615 125.841 37.0246 125.899 36.5755C125.956 36.1264 126.004 35.6808 126.043 35.2387C126.085 34.7931 126.12 34.3632 126.147 33.9492C126.173 33.5352 126.195 33.1509 126.21 32.7966H131.657V40.3755H130.452V33.8334H127.34C127.32 34.1141 127.297 34.4281 127.27 34.7755C127.244 35.1229 127.211 35.4913 127.173 35.8808C127.134 36.2702 127.086 36.672 127.028 37.086C126.975 37.5001 126.905 37.9159 126.821 38.3334C126.752 38.6913 126.667 39.0141 126.567 39.3018C126.467 39.5895 126.333 39.8299 126.164 40.0229C125.995 40.2124 125.774 40.3387 125.501 40.4018C125.228 40.4685 124.88 40.4597 124.458 40.3755Z" fill="#031343"/>
<path d="M116.002 41.6387V39.3387C116.286 39.3387 116.52 39.2738 116.705 39.1439C116.889 39.0106 117.035 38.8299 117.143 38.6018C117.254 38.3702 117.339 38.1071 117.396 37.8124C117.458 37.5176 117.504 37.2071 117.535 36.8808C117.581 36.4387 117.619 36.0071 117.65 35.586C117.685 35.1615 117.715 34.7229 117.742 34.2702C117.773 33.8176 117.806 33.3246 117.84 32.7913L123.154 32.7966V39.3387H123.771V41.6387H122.561V40.3755H117.206V41.6387H116.002ZM117.979 39.3387H121.95V33.8334L118.953 33.8281C118.926 34.2141 118.903 34.5808 118.884 34.9281C118.864 35.2755 118.839 35.6264 118.809 35.9808C118.782 36.3317 118.747 36.7088 118.705 37.1124C118.663 37.4983 118.618 37.8264 118.572 38.0966C118.526 38.3632 118.457 38.5948 118.365 38.7913C118.276 38.9878 118.148 39.1702 117.979 39.3387Z" fill="#031343"/>
<path d="M107.428 40.3755V32.7966H112.73V33.8334H108.632V35.9597H112.039V36.9966H108.632V39.3387H112.73V40.3755H107.428Z" fill="#031343"/>
<path d="M105.819 40.3755H104.597V34.7387L100.511 40.3755H99.2888V32.7966H100.511V38.4281L104.597 32.7966H105.819V40.3755Z" fill="#031343"/>
<path d="M91.1049 40.3755V32.7966H92.3095V36.065H96.4594V32.7966H97.6697V40.3755H96.4594V37.1018H92.3095V40.3755H91.1049Z" fill="#031343"/>
<path d="M82.9411 40.3755L85.6385 32.7966H87.3734L90.0708 40.3755H88.8201L86.3359 33.4597H86.6471L84.1918 40.3755H82.9411ZM84.3417 38.665V37.6334H88.676V38.665H84.3417Z" fill="#031343"/>
<path d="M76.3128 40.3755V32.7966H79.5751C80.1015 32.7966 80.5434 32.8948 80.9007 33.0913C81.2581 33.2878 81.5271 33.5422 81.7077 33.8545C81.8883 34.1632 81.9785 34.4895 81.9785 34.8334C81.9785 35.2509 81.8652 35.6088 81.6385 35.9071C81.4156 36.2053 81.114 36.4088 80.7336 36.5176L80.7221 36.2597C81.2523 36.379 81.6596 36.6124 81.944 36.9597C82.2283 37.3036 82.3705 37.7053 82.3705 38.165C82.3705 38.6106 82.2725 38.9983 82.0765 39.3281C81.8844 39.658 81.602 39.9159 81.2293 40.1018C80.8604 40.2843 80.4127 40.3755 79.8863 40.3755H76.3128ZM77.5347 39.3281H79.7019C79.9747 39.3281 80.2187 39.2808 80.4339 39.186C80.6529 39.0913 80.8239 38.9562 80.9468 38.7808C81.0736 38.6018 81.137 38.3895 81.137 38.1439C81.137 37.9159 81.0813 37.7106 80.9699 37.5281C80.8623 37.3422 80.7048 37.1966 80.4973 37.0913C80.2936 36.9825 80.0535 36.9281 79.7768 36.9281H77.5347V39.3281ZM77.5347 35.8913H79.5578C79.7807 35.8913 79.9805 35.8509 80.1572 35.7702C80.3378 35.686 80.48 35.5667 80.5837 35.4124C80.6913 35.2545 80.7451 35.065 80.7451 34.8439C80.7451 34.5492 80.6375 34.3071 80.4223 34.1176C80.2072 33.9281 79.919 33.8334 79.5578 33.8334H77.5347V35.8913Z" fill="#031343"/>
<path d="M71.2439 40.5334C70.4139 40.5334 69.7069 40.3685 69.1229 40.0387C68.5388 39.7053 68.0912 39.2422 67.7799 38.6492C67.4725 38.0562 67.3188 37.3685 67.3188 36.586C67.3188 35.8036 67.4725 35.1159 67.7799 34.5229C68.0912 33.9299 68.5388 33.4685 69.1229 33.1387C69.7069 32.8053 70.4139 32.6387 71.2439 32.6387C72.07 32.6387 72.7751 32.8053 73.3592 33.1387C73.9471 33.4685 74.3947 33.9299 74.7021 34.5229C75.0095 35.1159 75.1632 35.8036 75.1632 36.586C75.1632 37.3685 75.0095 38.0562 74.7021 38.6492C74.3947 39.2422 73.9471 39.7053 73.3592 40.0387C72.7751 40.3685 72.07 40.5334 71.2439 40.5334ZM71.2439 39.486C71.8318 39.4931 72.3198 39.3755 72.7079 39.1334C73.0998 38.8878 73.3938 38.5474 73.5897 38.1124C73.7857 37.6738 73.8837 37.165 73.8837 36.586C73.8837 36.0071 73.7857 35.5018 73.5897 35.0703C73.3938 34.6352 73.0998 34.2966 72.7079 34.0545C72.3198 33.8124 71.8318 33.6895 71.2439 33.686C70.656 33.679 70.1661 33.7966 69.7742 34.0387C69.3861 34.2808 69.094 34.6211 68.8981 35.0597C68.7021 35.4983 68.6022 36.0071 68.5984 36.586C68.5945 37.165 68.6906 37.672 68.8866 38.1071C69.0825 38.5387 69.3765 38.8755 69.7684 39.1176C70.1642 39.3597 70.656 39.4825 71.2439 39.486Z" fill="#031343"/>
<path d="M58.7472 41.6387V39.3387C59.0316 39.3387 59.266 39.2738 59.4504 39.1439C59.6348 39.0106 59.7809 38.8299 59.8884 38.6018C59.9999 38.3702 60.0844 38.1071 60.1421 37.8124C60.2035 37.5176 60.2496 37.2071 60.2804 36.8808C60.3265 36.4387 60.3649 36.0071 60.3956 35.586C60.4302 35.1615 60.461 34.7229 60.4879 34.2702C60.5186 33.8176 60.5513 33.3246 60.5859 32.7913L65.9 32.7966V39.3387H66.5167V41.6387H65.3063V40.3755H59.9519V41.6387H58.7472ZM60.7242 39.3387H64.6954V33.8334L61.6983 33.8281C61.6714 34.2141 61.6483 34.5808 61.6291 34.9281C61.6099 35.2755 61.5849 35.6264 61.5542 35.9808C61.5273 36.3317 61.4927 36.7088 61.4504 37.1124C61.4081 37.4983 61.364 37.8264 61.3178 38.0966C61.2717 38.3632 61.2026 38.5948 61.1104 38.7913C61.022 38.9878 60.8932 39.1702 60.7242 39.3387Z" fill="#031343"/>
<path d="M53.8882 40.3755L54.9372 38.4124L52.0438 32.7966H53.3983L55.5655 37.2439L57.7903 32.7966H59.0756L55.1908 40.3755H53.8882Z" fill="#031343"/>
<path d="M45.4681 40.3755V32.7966H48.8225C48.9032 32.7966 49.0031 32.8001 49.1222 32.8071C49.2414 32.8106 49.3547 32.8211 49.4623 32.8387C49.9234 32.9053 50.3076 33.0492 50.615 33.2702C50.9263 33.4913 51.1588 33.7702 51.3125 34.1071C51.4662 34.4439 51.543 34.8159 51.543 35.2229C51.543 35.6334 51.4662 36.0071 51.3125 36.3439C51.1588 36.6808 50.9263 36.9597 50.615 37.1808C50.3076 37.4018 49.9234 37.5457 49.4623 37.6124C49.3547 37.6264 49.2394 37.6369 49.1165 37.6439C48.9974 37.6509 48.8994 37.6545 48.8225 37.6545H46.6727V40.3755H45.4681ZM46.6727 36.6124H48.7764C48.8533 36.6124 48.9378 36.6088 49.03 36.6018C49.1261 36.5948 49.2164 36.5825 49.3009 36.565C49.5468 36.5124 49.7447 36.4159 49.8946 36.2755C50.0444 36.1317 50.152 35.9667 50.2173 35.7808C50.2827 35.5948 50.3153 35.4088 50.3153 35.2229C50.3153 35.0369 50.2827 34.8527 50.2173 34.6702C50.152 34.4843 50.0444 34.3211 49.8946 34.1808C49.7447 34.0369 49.5468 33.9387 49.3009 33.886C49.2164 33.865 49.1261 33.8509 49.03 33.8439C48.9378 33.8369 48.8533 33.8334 48.7764 33.8334H46.6727V36.6124Z" fill="#031343"/>
<path d="M40.3991 40.5334C39.5692 40.5334 38.8622 40.3685 38.2781 40.0387C37.694 39.7053 37.2464 39.2422 36.9352 38.6492C36.6278 38.0562 36.4741 37.3685 36.4741 36.586C36.4741 35.8036 36.6278 35.1159 36.9352 34.5229C37.2464 33.9299 37.694 33.4685 38.2781 33.1387C38.8622 32.8053 39.5692 32.6387 40.3991 32.6387C41.2253 32.6387 41.9304 32.8053 42.5144 33.1387C43.1023 33.4685 43.55 33.9299 43.8574 34.5229C44.1648 35.1159 44.3185 35.8036 44.3185 36.586C44.3185 37.3685 44.1648 38.0562 43.8574 38.6492C43.55 39.2422 43.1023 39.7053 42.5144 40.0387C41.9304 40.3685 41.2253 40.5334 40.3991 40.5334ZM40.3991 39.486C40.987 39.4931 41.475 39.3755 41.8631 39.1334C42.2551 38.8878 42.549 38.5474 42.745 38.1124C42.9409 37.6738 43.0389 37.165 43.0389 36.586C43.0389 36.0071 42.9409 35.5018 42.745 35.0703C42.549 34.6352 42.2551 34.2966 41.8631 34.0545C41.475 33.8124 40.987 33.6895 40.3991 33.686C39.8112 33.679 39.3213 33.7966 38.9294 34.0387C38.5413 34.2808 38.2493 34.6211 38.0533 35.0597C37.8573 35.4983 37.7574 36.0071 37.7536 36.586C37.7498 37.165 37.8458 37.672 38.0418 38.1071C38.2377 38.5387 38.5317 38.8755 38.9236 39.1176C39.3194 39.3597 39.8112 39.4825 40.3991 39.486Z" fill="#031343"/>
<path d="M29.7078 40.3755V32.7966H35.12V33.8334H30.9124V35.6597H33.0623C33.1392 35.6597 33.2371 35.6632 33.3563 35.6702C33.4792 35.6738 33.5945 35.6825 33.7021 35.6966C34.1517 35.7457 34.5301 35.879 34.8375 36.0966C35.1488 36.3141 35.3832 36.5895 35.5407 36.9229C35.7021 37.2562 35.7828 37.6211 35.7828 38.0176C35.7828 38.4141 35.704 38.779 35.5465 39.1124C35.3889 39.4457 35.1545 39.7211 34.8433 39.9387C34.5359 40.1562 34.1555 40.2895 33.7021 40.3387C33.5945 40.3527 33.4811 40.3632 33.362 40.3702C33.2429 40.3738 33.143 40.3755 33.0623 40.3755H29.7078ZM30.9124 39.3387H33.0162C33.0931 39.3387 33.1776 39.3352 33.2698 39.3281C33.3659 39.3211 33.4562 39.3106 33.5407 39.2966C33.9134 39.2264 34.1747 39.065 34.3246 38.8124C34.4783 38.5597 34.5551 38.2948 34.5551 38.0176C34.5551 37.7369 34.4783 37.472 34.3246 37.2229C34.1747 36.9702 33.9134 36.8088 33.5407 36.7387C33.4562 36.7211 33.3659 36.7106 33.2698 36.7071C33.1776 36.7001 33.0931 36.6966 33.0162 36.6966H30.9124V39.3387Z" fill="#031343"/>
<path d="M24.6389 40.5334C23.809 40.5334 23.1019 40.3685 22.5179 40.0387C21.9338 39.7053 21.4862 39.2422 21.1749 38.6492C20.8675 38.0562 20.7138 37.3685 20.7138 36.586C20.7138 35.8036 20.8675 35.1159 21.1749 34.5229C21.4862 33.9299 21.9338 33.4685 22.5179 33.1387C23.1019 32.8053 23.809 32.6387 24.6389 32.6387C25.4651 32.6387 26.1702 32.8053 26.7542 33.1387C27.3421 33.4685 27.7898 33.9299 28.0972 34.5229C28.4046 35.1159 28.5583 35.8036 28.5583 36.586C28.5583 37.3685 28.4046 38.0562 28.0972 38.6492C27.7898 39.2422 27.3421 39.7053 26.7542 40.0387C26.1702 40.3685 25.4651 40.5334 24.6389 40.5334ZM24.6389 39.486C25.2268 39.4931 25.7148 39.3755 26.1029 39.1334C26.4948 38.8878 26.7888 38.5474 26.9848 38.1124C27.1807 37.6738 27.2787 37.165 27.2787 36.586C27.2787 36.0071 27.1807 35.5018 26.9848 35.0703C26.7888 34.6352 26.4948 34.2966 26.1029 34.0545C25.7148 33.8124 25.2268 33.6895 24.6389 33.686C24.051 33.679 23.5611 33.7966 23.1692 34.0387C22.7811 34.2808 22.4891 34.6211 22.2931 35.0597C22.0971 35.4983 21.9972 36.0071 21.9934 36.586C21.9895 37.165 22.0856 37.672 22.2816 38.1071C22.4775 38.5387 22.7715 38.8755 23.1634 39.1176C23.5592 39.3597 24.051 39.4825 24.6389 39.486Z" fill="#031343"/>
<path d="M13.2383 40.3755L14.2873 38.4124L11.3939 32.7966H12.7484L14.9155 37.2439L17.1403 32.7966H18.4256L14.5409 40.3755H13.2383Z" fill="#031343"/>
<path d="M9.32515 32.7966H10.5413L8.32803 40.3755H7.11188L9.32515 32.7966Z" fill="#031343"/>
<path d="M0 40.3755V32.7966H5.41212V33.8334H1.20461V35.6597H3.35448C3.43133 35.6597 3.52931 35.6632 3.64843 35.6702C3.77139 35.6738 3.88666 35.6825 3.99425 35.6966C4.44382 35.7457 4.8223 35.879 5.1297 36.0966C5.44094 36.3141 5.67533 36.5895 5.83287 36.9229C5.99425 37.2562 6.07495 37.6211 6.07495 38.0176C6.07495 38.4141 5.99618 38.779 5.83863 39.1124C5.68109 39.4457 5.4467 39.7211 5.13546 39.9387C4.82806 40.1562 4.44766 40.2895 3.99425 40.3387C3.88666 40.3527 3.77331 40.3632 3.65419 40.3702C3.53507 40.3738 3.43517 40.3755 3.35448 40.3755H0ZM1.20461 39.3387H3.30837C3.38522 39.3387 3.46975 39.3352 3.56197 39.3281C3.65803 39.3211 3.74833 39.3106 3.83286 39.2966C4.20558 39.2264 4.46687 39.065 4.61673 38.8124C4.77043 38.5597 4.84728 38.2948 4.84728 38.0176C4.84728 37.7369 4.77043 37.472 4.61673 37.2229C4.46687 36.9702 4.20558 36.8088 3.83286 36.7387C3.74833 36.7211 3.65803 36.7106 3.56197 36.7071C3.46975 36.7001 3.38522 36.6966 3.30837 36.6966H1.20461V39.3387Z" fill="#031343"/>
<path d="M9.72727 5.36104L19.9999 10.861M25.4999 8.36104L14.9578 3.08995C14.6703 2.94621 14.3313 2.94941 14.0466 3.09854L4 8.36104L14.5 14.361" stroke="#031343" stroke-width="1.5" stroke-linecap="round" stroke-linejoin="round"/>
<path d="M14.5 26.3613V14.955V26.3613Z" fill="#D9D9D9" stroke="#F53535" stroke-width="1.5" stroke-linecap="round" stroke-linejoin="round"/>
<path d="M14.5 26.3613V14.3613Z" stroke="#258FFB" stroke-width="1.5" stroke-linecap="round" stroke-linejoin="round"/>
</svg>
