<svg width="18" height="19" viewBox="0 0 18 19" fill="none" xmlns="http://www.w3.org/2000/svg">
<path fill-rule="evenodd" clip-rule="evenodd" d="M2.10538 8.54975C6.39431 6.55746 9.26124 5.26977 10.7062 4.63807C14.7887 2.84015 15.6373 2.5243 16.1878 2.5C16.3024 2.5 16.5777 2.5243 16.7611 2.67007C16.8988 2.79155 16.9446 2.96163 16.9676 3.08311C16.9905 3.20459 17.0134 3.47185 16.9905 3.69051C16.7611 6.14443 15.8208 12.1456 15.3162 14.8911C15.1098 16.0573 14.697 16.446 14.307 16.4946C13.4584 16.5675 12.7933 15.8872 11.9676 15.3284C10.6832 14.4294 9.94931 13.8706 8.68786 12.996C7.24292 11.9755 8.18328 11.4167 9.00895 10.5177C9.21537 10.2748 12.9997 6.65465 13.0685 6.3145C13.0685 6.26591 13.0915 6.12013 12.9997 6.04724C12.908 5.97436 12.7933 5.99865 12.7016 6.02295C12.564 6.04724 10.4998 7.50502 6.48605 10.372C5.88973 10.8093 5.36221 11.0037 4.88057 11.0037C4.35305 11.0037 3.34389 10.6878 2.58702 10.4206C1.6696 10.1047 0.935667 9.93464 1.00447 9.40012C1.05034 9.13286 1.41731 8.84131 2.10538 8.54975Z" fill="#258FFB"/>
</svg>
