<svg width="16" height="17" viewBox="0 0 16 17" fill="none" xmlns="http://www.w3.org/2000/svg">
<path fill-rule="evenodd" clip-rule="evenodd" d="M13.6662 2.82381C12.1626 1.32667 10.1616 0.5 8.03061 0.5C3.63845 0.5 0.0688665 4.0581 0.0650405 8.42762C0.0650405 9.82571 0.432329 11.1895 1.12865 12.3895L0 16.5L4.22382 15.399C5.3869 16.0314 6.69536 16.3629 8.03061 16.3629H8.03443C12.4228 16.3629 15.9962 12.8048 16 8.43524C16 6.31333 15.1698 4.32095 13.6662 2.82381ZM8.03443 15.0219C6.84457 15.0219 5.67767 14.7019 4.6638 14.1038L4.42276 13.9629L1.91679 14.6181L2.58632 12.1876L2.42946 11.94C1.76758 10.8924 1.41559 9.67714 1.41559 8.43143C1.41559 4.79714 4.38833 1.84095 8.03826 1.84095C9.80583 1.84095 11.4701 2.52667 12.7174 3.77238C13.9684 5.0181 14.6571 6.67524 14.6533 8.43524C14.6494 12.0657 11.6805 15.0219 8.03443 15.0219ZM11.6652 10.0886C11.4663 9.98952 10.4868 9.50952 10.307 9.44476C10.1234 9.38 9.9933 9.34571 9.8594 9.54381C9.72549 9.74191 9.34672 10.1876 9.22812 10.321C9.11334 10.4543 8.99474 10.4695 8.79579 10.3705C8.59684 10.2714 7.95409 10.0619 7.19656 9.38762C6.60354 8.86191 6.20564 8.21429 6.09087 8.01619C5.97609 7.8181 6.07939 7.71143 6.17886 7.61238C6.26686 7.52476 6.37781 7.38 6.47728 7.26571C6.57676 7.15143 6.61119 7.06762 6.67623 6.93429C6.74127 6.80095 6.71066 6.68667 6.66093 6.58762C6.61119 6.48857 6.21329 5.51333 6.04878 5.11714C5.88809 4.73238 5.72358 4.78191 5.60115 4.7781C5.48637 4.77048 5.35246 4.77048 5.21856 4.77048C5.08465 4.77048 4.8704 4.82 4.68675 5.0181C4.50311 5.21619 3.99043 5.69619 3.99043 6.67143C3.99043 7.64667 4.70206 8.58762 4.80153 8.72095C4.901 8.85429 6.20564 10.8543 8.20277 11.7114C8.67719 11.9171 9.0483 12.039 9.33907 12.1305C9.81731 12.2829 10.2496 12.26 10.594 12.2105C10.9766 12.1533 11.7724 11.7305 11.9369 11.2695C12.1014 10.8086 12.1014 10.4086 12.0516 10.3286C11.9943 10.2371 11.8642 10.1876 11.6652 10.0886Z" fill="#01CD3A"/>
</svg>
