<svg width="182" height="40" viewBox="0 0 182 40" fill="none" xmlns="http://www.w3.org/2000/svg">
<g clip-path="url(#clip0_11_2384)">
<path d="M56.8313 6.24606C56.1638 3.78764 54.1972 1.85123 51.6998 1.19417C47.173 5.34058e-05 29.0221 4.95911e-05 29.0221 4.95911e-05C29.0221 4.95911e-05 10.8712 5.34058e-05 6.34453 1.19417C3.84733 1.85123 1.88037 3.78764 1.21295 6.24606C0 10.7024 0 19.9999 0 19.9999C0 19.9999 0 29.2977 1.21295 33.7539C1.88037 36.2121 3.84733 38.1487 6.34453 38.8055C10.8712 40 29.0221 40 29.0221 40C29.0221 40 47.173 40 51.6998 38.8055C54.1972 38.1487 56.1638 36.2121 56.8313 33.7539C58.0444 29.2977 58.0444 19.9999 58.0444 19.9999C58.0444 19.9999 58.0444 10.7024 56.8313 6.24606Z" fill="#ED1D24"/>
<path d="M23.2178 28.5713L38.2977 20L23.2178 11.4284V28.5713Z" fill="white"/>
<path d="M90.685 32.4667C91.0027 31.65 91.1623 30.3152 91.1623 28.4627V20.6572C91.1623 18.8593 91.0027 17.5452 90.685 16.714C90.3668 15.8833 89.8064 15.4676 89.0041 15.4676C88.2292 15.4676 87.6821 15.8833 87.3644 16.714C87.0462 17.5452 86.8871 18.8593 86.8871 20.6572V28.4627C86.8871 30.3152 87.039 31.65 87.3438 32.4667C87.6477 33.2844 88.201 33.6926 89.0041 33.6926C89.8064 33.6926 90.3668 33.2844 90.685 32.4667ZM84.2516 36.3899C83.1025 35.6279 82.2859 34.4424 81.8024 32.8345C81.3179 31.2278 81.0762 29.0891 81.0762 26.4192V22.7823C81.0762 20.0854 81.3523 17.9193 81.9061 16.285C82.4594 14.6504 83.3237 13.4589 84.5005 12.7095C85.6763 11.9606 87.2191 11.5857 89.1288 11.5857C91.0104 11.5857 92.5183 11.9674 93.6531 12.7298C94.7873 13.4925 95.6177 14.6848 96.1438 16.3054C96.6689 17.9265 96.9321 20.0854 96.9321 22.7823V26.4192C96.9321 29.0891 96.676 31.2348 96.1643 32.8553C95.6521 34.4763 94.8217 35.6615 93.6736 36.4103C92.525 37.1594 90.9688 37.5342 89.0041 37.5342C86.9836 37.5342 85.3992 37.1524 84.2516 36.3899Z" fill="white"/>
<path d="M173.14 15.9355C172.85 16.2897 172.655 16.8687 172.559 17.672C172.461 18.4758 172.414 19.6947 172.414 21.3292V23.1273H176.606V21.3292C176.606 19.7223 176.55 18.5032 176.44 17.672C176.329 16.8413 176.129 16.2559 175.838 15.9151C175.547 15.5744 175.098 15.4041 174.489 15.4041C173.88 15.4041 173.43 15.5816 173.14 15.9355ZM172.414 26.4783V27.7452C172.414 29.3529 172.461 30.5582 172.559 31.3615C172.655 32.1653 172.856 32.7511 173.161 33.1191C173.465 33.4864 173.935 33.6707 174.572 33.6707C175.429 33.6707 176.018 33.3436 176.336 32.6895C176.654 32.0358 176.827 30.9463 176.855 29.4203L181.795 29.7066C181.822 29.9252 181.836 30.2247 181.836 30.6054C181.836 32.9214 181.193 34.6515 179.906 35.7956C178.62 36.9394 176.799 37.5117 174.448 37.5117C171.625 37.5117 169.646 36.6403 168.512 34.8962C167.377 33.1535 166.81 30.4562 166.81 26.8053V22.4326C166.81 18.6732 167.398 15.9291 168.574 14.1984C169.75 12.4687 171.763 11.6037 174.614 11.6037C176.578 11.6037 178.086 11.9579 179.138 12.6661C180.189 13.3749 180.93 14.4783 181.359 15.9761C181.788 17.4746 182.002 19.5454 182.002 22.1875V26.4783H172.414Z" fill="white"/>
<path d="M70.3032 26.0093L63.7861 2.83912H69.4728L71.7557 13.3413C72.3371 15.93 72.7657 18.1365 73.0424 19.9612H73.2086C73.4021 18.6537 73.8312 16.461 74.4953 13.3823L76.8614 2.83912H82.548L75.9483 26.0093V37.125H70.3032V26.0093Z" fill="white"/>
<path d="M115.428 12.0753V37.1249H110.945L110.446 34.0602H110.322C109.104 36.3757 107.278 37.5332 104.843 37.5332C103.155 37.5332 101.91 36.989 101.107 35.8989C100.304 34.8098 99.9033 33.1066 99.9033 30.791V12.0753H105.632V30.4639C105.632 31.5816 105.756 32.3781 106.005 32.8545C106.254 33.3317 106.669 33.5696 107.25 33.5696C107.749 33.5696 108.226 33.4202 108.682 33.1198C109.139 32.8203 109.478 32.4397 109.699 31.9763V12.0753H115.428Z" fill="white"/>
<path d="M144.81 12.0753V37.1249H140.326L139.828 34.0602H139.704C138.485 36.3757 136.659 37.5332 134.225 37.5332C132.537 37.5332 131.291 36.989 130.489 35.8989C129.686 34.8098 129.285 33.1066 129.285 30.791V12.0753H135.013V30.4639C135.013 31.5816 135.138 32.3781 135.387 32.8545C135.636 33.3317 136.051 33.5696 136.632 33.5696C137.13 33.5696 137.608 33.4202 138.064 33.1198C138.521 32.8203 138.86 32.4397 139.081 31.9763V12.0753H144.81Z" fill="white"/>
<path d="M130.993 7.37595H125.306V37.125H119.703V7.37595H114.016V2.83987H130.993V7.37595Z" fill="white"/>
<path d="M158.518 26.2971C158.518 28.1225 158.441 29.5529 158.289 30.5877C158.137 31.6236 157.881 32.359 157.521 32.7944C157.161 33.2304 156.676 33.4481 156.068 33.4481C155.597 33.4481 155.162 33.3397 154.761 33.1211C154.359 32.9034 154.034 32.5766 153.785 32.1403V17.9198C153.979 17.2392 154.311 16.6805 154.781 16.2445C155.252 15.8092 155.763 15.5907 156.317 15.5907C156.898 15.5907 157.347 15.8156 157.666 16.2648C157.984 16.7143 158.206 17.4703 158.33 18.5331C158.455 19.5953 158.518 21.1073 158.518 23.0687V26.2971ZM163.768 16.0793C163.422 14.4997 162.861 13.3556 162.087 12.6467C161.312 11.939 160.246 11.5846 158.891 11.5846C157.839 11.5846 156.857 11.8776 155.944 12.463C155.031 13.0489 154.324 13.8186 153.827 14.772H153.785L153.785 1.5727H148.265V37.1242H152.996L153.578 34.7545H153.702C154.144 35.5988 154.808 36.2663 155.694 36.7567C156.58 37.2469 157.562 37.4922 158.642 37.4922C160.578 37.4922 162.004 36.6134 162.917 34.8565C163.83 33.099 164.287 30.3549 164.287 26.6223V22.6585C164.287 19.8529 164.113 17.6598 163.768 16.0793Z" fill="white"/>
</g>
<defs>
<clipPath id="clip0_11_2384">
<rect width="182" height="40" fill="white"/>
</clipPath>
</defs>
</svg>
